<?xml version="1.0" encoding="UTF-8"?>
<svg version="1.1" viewBox="0 0 463.4 463.4" xmlns="http://www.w3.org/2000/svg">
 <defs>
  <filter id="b" color-interpolation-filters="sRGB">
   <feGaussianBlur stdDeviation="13.065897"/>
  </filter>
  <filter id="a" x="-.1118" y="-.32953" width="1.2236" height="1.6591" color-interpolation-filters="sRGB">
   <feGaussianBlur stdDeviation="13.39317"/>
  </filter>
 </defs>
 <g transform="translate(-65.441 -143.52)">
  <g transform="translate(65.441 143.52)">
   <path transform="translate(-118.3 -148.37)" d="m536.11 380.07a186.11 186.11 0 1 1 -372.22 0 186.11 186.11 0 1 1 372.22 0z" fill="#fff"/>
   <path d="m231.7 31.358c-110.65 0-200.34 89.698-200.34 200.34 0 110.65 89.698 200.34 200.34 200.34 110.65 0 200.34-89.698 200.34-200.34 0-110.65-89.698-200.34-200.34-200.34zm0 49.906c83.077 0 150.44 67.361 150.44 150.44 0 83.077-67.361 150.44-150.44 150.44-83.077 0-150.41-67.361-150.41-150.44 0-83.077 67.33-150.44 150.41-150.44z" filter="url(#b)" opacity=".33628"/>
   <path d="m89.878 132.44 37.624-41.584 246.04 246.04-43.564 35.644z" filter="url(#b)" opacity=".33628"/>
   <path d="m231.7 31.358c-110.65 0-200.34 89.698-200.34 200.34 0 110.65 89.698 200.34 200.34 200.34 110.65 0 200.34-89.698 200.34-200.34 0-110.65-89.698-200.34-200.34-200.34zm0 49.906c83.077 0 150.44 67.361 150.44 150.44 0 83.077-67.361 150.44-150.44 150.44-83.077 0-150.41-67.361-150.41-150.44 0-83.077 67.33-150.44 150.41-150.44z" fill="#d40000"/>
   <g transform="translate(-400 -17.308)">
    <g transform="matrix(.77131 0 0 .77131 627.63 -161.06)">
     <path d="m-38.838 618.68c-4.7909-0.83911-13.338-4.2732-19.07-7.6618-2.9079-1.7192-7.0469-3.8409-9.1979-4.7149-2.151-0.87403-5.7691-3.1079-8.0403-4.9642-4.2159-3.4457-11.666-11.325-14.393-15.222l-1.5167-2.1673 1.7792-5.8534c0.97859-3.2193 2.023-6.1541 2.321-6.5217 0.29794-0.36761 2.1933-3.8774 4.212-7.7996 4.6532-9.0409 9.9504-16.214 15.201-20.584 4.657-3.8756 15.572-9.5832 24.048-12.575 6.1387-2.1667 22.042-5.6215 31.643-6.874 7.7756-1.0144 27.285-0.44903 33.476 0.97012 4.3738 1.0026 5.114 0.98857 12.365-0.23467 7.7636-1.3097 16.725-4.5862 22.553-8.246 3.8267-2.4029 12.726-6.2449 17.242-7.4438 6.5544-1.7401 15.599-1.9973 26.864-0.76389 12.744 1.3954 15.643 2.1532 21.465 5.6119 5.2919 3.1439 8.2741 6.2795 14.197 14.928 3.7909 5.5349 4.1726 6.4251 4.7789 11.145 0.83461 6.4982 0.35282 15.938-0.9452 18.52-0.54843 1.0907-1.3601 3.4672-1.8038 5.281-0.56349 2.3039-2.1148 4.9732-5.1468 8.8561-2.3871 3.057-4.5924 5.5582-4.9007 5.5582s-3.8261 2.1889-7.8172 4.8642c-9.1286 6.1189-22.927 12.113-34.888 15.155-12.864 3.272-19.865 4.0817-34.863 4.0323l-14.37-0.0473-3.9374 2.0339c-2.1656 1.1187-4.7306 2.0339-5.7001 2.0339-0.96951 0-3.8875 1.0183-6.4844 2.2628-2.597 1.2446-6.0474 2.4784-7.6676 2.7419-1.6202 0.26351-6.8559 1.7849-11.635 3.3809-12.264 4.0958-17.384 4.9963-27.877 4.9035-4.8864-0.0433-10.238-0.31568-11.892-0.60542z" fill="#f1d899"/>
     <path d="m-37.947 618.07c-4.5248-0.71759-13.538-4.1863-18.22-7.0124-2.0489-1.2366-6.5827-3.6146-10.075-5.2844-8.3168-3.9765-18.399-13.099-21.475-19.431l-1.9767-4.0695 1.459-4.3445c3.8754-11.54 13.376-27.032 20.508-33.441 6.9835-6.2757 23.879-13.748 37.243-16.471 15.437-3.1455 23.805-4.2095 33.178-4.2184 8.5099-8e-3 18.631 1.2502 21.271 2.6445 1.5473 0.81722 14.932-1.6899 21.413-4.0108 3.1247-1.119 8.9742-3.8337 12.999-6.0326 12.504-6.8312 22.101-9.0295 34.791-7.9684 12.304 1.0288 19.992 1.9779 22.371 2.7616 2.8497 0.93882 13.388 7.6362 13.388 8.5084 0 0.34109 0.97751 1.8422 2.1722 3.3358 8.887 11.11 9.2032 11.91 9.3834 23.741 0.11991 7.8764-9e-3 8.9959-1.2815 11.099-0.77815 1.2866-1.6164 3.6761-1.8628 5.3098-0.32921 2.1829-1.4568 4.2875-4.2524 7.9375-3.2255 4.2111-5.1069 5.8244-12.363 10.601-12.242 8.0588-26.392 13.706-43.596 17.398-8.0914 1.7365-9.8152 1.8696-25.064 1.9357l-16.375 0.0709-3.6354 1.8296c-1.9994 1.0063-4.7064 1.9956-6.0155 2.1984-1.3091 0.20282-4.3352 1.3409-6.7246 2.5291-2.3895 1.1882-5.698 2.3741-7.3522 2.6353-1.6542 0.26121-5.8949 1.4993-9.4236 2.7514-11.792 4.1842-16.122 5.034-27.003 5.2998-5.5142 0.13468-11.58-1e-3 -13.479-0.30277zm17.529-14.43c-1.6648-1.2592-2.4401-1.2507-1.952 0.0212 0.21161 0.55142 1.0293 0.99302 1.8171 0.98133 1.4032-0.0209 1.406-0.0412 0.13494-1.0026zm-35.13-13.235c0-1.1405-0.69835-1.8427-1.4008-1.4086-0.6743 0.41675-0.016 2.2998 0.80394 2.2998 0.32828 0 0.59688-0.40102 0.59688-0.89117zm48.006-1.5599c-0.32521-1.6768-1.8871-1.9071-1.8871-0.27819 0 0.821 0.43157 1.3925 1.0516 1.3925 0.62243 0 0.9634-0.45476 0.83549-1.1143zm8.6359-0.0307c0.14637-0.44595-0.44295-0.98879-1.3096-1.2063-0.86666-0.21752-1.8655-1.054-2.2197-1.8588-0.96835-2.2003-2.9834-2.3242-2.9834-0.18337 0 1.3035 0.34101 1.72 1.4083 1.72 0.93356 0 1.287 0.31593 1.0486 0.93723-0.19781 0.51547-0.16605 1.1308 0.0706 1.3674 0.6933 0.6933 3.6948 0.10873 3.9852-0.77617zm15.878 0.47665c0.2272-0.36761-0.0558-0.66839-0.62894-0.66839-0.57311 0-1.042 0.30078-1.042 0.66839s0.28303 0.66839 0.62894 0.66839c0.34592 0 0.81483-0.30078 1.042-0.66839zm-28.036-2.0634c0.76914-1.2445-0.75111-2.0472-3.4569-1.8254l-2.5945 0.2127 2.0052 1.1429c2.3572 1.3436 3.4294 1.4681 4.0463 0.46982zm-7.7224-2.6153c-1.3137-0.84899-3.3419-0.84899-3.3419 0 0 0.36761 0.97751 0.66378 2.1722 0.65815 1.6484-8e-3 1.9305-0.16648 1.1697-0.65815zm-65.975-1.3135c3.5845-2.8646 5.8218-4.9231 5.5961-5.1488-0.50622-0.50623-8.4527 4.6046-8.0849 5.1998 0.47917 0.77531 1.4804 0.75479 2.4888-0.051zm77.324-2.3788c-0.46501-0.5603-0.98312-0.88109-1.1514-0.71285-0.46352 0.46352 0.47826 1.7316 1.286 1.7316 0.44321 0 0.3925-0.3835-0.13469-1.0187zm-24.842-2.9498c0.16709-0.50129-0.0836-0.75193-0.58484-0.58484-0.48249 0.16083-1.0088 0.68719-1.1697 1.1697-0.1671 0.50129 0.0835 0.75193 0.58483 0.58484 0.48249-0.16084 1.0088-0.68719 1.1697-1.1697zm-25.273-0.68152c3.6835-0.74365 7.6365-2.2823 8.2209-3.1998 0.81922-1.2862 2.3327-0.99817 2.8198 0.53659 0.52178 1.644 2.8319 1.5399 3.9073-0.17603 0.56196-0.89659 0.37348-1.5024-0.88373-2.8406-1.9448-2.0701-2.6695-2.1104-4.9997-0.27737-1.4919 1.1735-2.0655 1.2906-3.265 0.66654-0.92785-0.48274-3.0294-0.59965-5.7996-0.32263-2.3895 0.23894-6.2701 0.39128-8.6236 0.33854-3.9776-0.0891-6.0809 0.59337-6.0809 1.9733 0 0.31558 1.374 0.38544 3.0532 0.15527 2.9147-0.3995 3.1459-0.30611 5.0946 2.0581 1.4317 1.7369 2.3663 2.3398 3.1293 2.0185 0.59836-0.25193 2.1406-0.67059 3.4273-0.93034zm45.45 0.62542c0-0.91184-3.2139-2.3416-3.845-1.7106-0.57675 0.57674 1.6777 2.3933 2.9702 2.3933 0.48116 0 0.87483-0.30722 0.87483-0.68271zm14.036-1.3224c0-0.36762-0.6193-0.66839-1.3762-0.66839-0.75692 0-1.1903 0.30077-0.96313 0.66839 0.22719 0.36761 0.8465 0.66838 1.3762 0.66838 0.52972 0 0.96313-0.30077 0.96313-0.66838zm-20.386-4.0103c-0.2272-0.36761-0.54573-0.66838-0.70784-0.66838-0.1621 0-0.29474 0.30077-0.29474 0.66838s0.31853 0.66839 0.70783 0.66839c0.38931 0 0.52195-0.30078 0.29475-0.66839zm21.956-2.921 2.5727-0.89571-2.1671-0.43342c-2.1954-0.43908-4.2965 0.52527-3.5999 1.6523 0.44385 0.71817 0.10468 0.75249 3.1943-0.32319zm9.7924-1.0893c0-0.73523-0.30078-1.3368-0.66839-1.3368s-0.66839 0.60155-0.66839 1.3368c0 0.73522 0.30078 1.3368 0.66839 1.3368s0.66839-0.60155 0.66839-1.3368zm-23.394-4.0203c1.4159-1.116 1.5179-1.4182 0.66839-1.9801-1.3626-0.90117-2.6735-0.85247-2.6735 0.0993 0 0.43057-0.49777 1.3329-1.1062 2.0052-1.0349 1.1436-1.0242 1.2214 0.1671 1.2074 0.7003-8e-3 2.0252-0.6075 2.9442-1.3318zm82.546-1.9952c0.66537-0.73522 0.90899-1.3368 0.54137-1.3368-0.36761 0-1.2128 0.60155-1.8782 1.3368-0.66537 0.73523-0.90899 1.3368-0.54137 1.3368 0.36761 0 1.2128-0.60155 1.8782-1.3368zm-134.8-1.7827c-0.32521-1.6768-1.8871-1.9071-1.8871-0.27818 0 0.821 0.43157 1.3925 1.0516 1.3925 0.62243 0 0.9634-0.45475 0.83549-1.1143zm64.856-4.6482c1.1551-0.23103 2.1003-0.71831 2.1003-1.0828 0-0.36454-0.67674-0.48144-1.5039-0.25978-0.82712 0.22167-1.9952 0.40714-2.5956 0.41216-0.65489 5e-3 -1.2314 0.73954-1.4407 1.8345-0.30596 1.6006-0.24496 1.6832 0.49537 0.6707 0.46436-0.63506 1.7894-1.3437 2.9446-1.5747zm-13.02 0.0723c3.11-1.2994 3.101-2.298-0.0188-2.0984-1.8257 0.1168-2.5774 0.52784-2.9862 1.633-0.64601 1.7463-0.21894 1.8125 3.0051 0.46539zm-50.995-0.68789c1.0966-0.56707 1.8138-1.3222 1.5939-1.6781-0.23937-0.38732-0.97866-0.24173-1.8415 0.36265-0.79289 0.55536-1.9762 1.0098-2.6297 1.0098-0.65343 0-1.188 0.30077-1.188 0.66838 0 0.97639 1.7836 0.81727 4.0654-0.36266zm74.964-1.5348c0.58915-0.58915 0.18995-0.77606-1.6575-0.77606-2.3084 0-3.5891 0.70573-2.769 1.5258 0.60178 0.60178 3.5794 0.0974 4.4266-0.74975zm-33.332-2.2799c0.22166-0.82712 0.40713-1.7294 0.41215-2.0052 0.0192-1.0541-1.8267-0.43356-3.2652 1.0977-1.1184 1.1904-1.2762 1.6893-0.6178 1.9524 1.8915 0.75591 3.0845 0.39676 3.4708-1.0449zm6.9937-3.9401c3.5372-1.5145 3.3498-2.8369-0.4418-3.1164-2.1609-0.15926-2.7887 0.0275-2.7887 0.82982 0 0.56944-0.60155 1.411-1.3368 1.8702-0.73523 0.45915-1.3368 1.2339-1.3368 1.7217 0 0.98735 1.1362 0.73616 5.904-1.3053zm-31.962-0.0702c5e-3 -0.45952 0.17942-1.5874 0.38755-2.5064l0.37842-1.671-1.7243 1.8753c-2.071 2.2524-2.1803 3.1376-0.38755 3.1376 0.73523 0 1.3409-0.37597 1.3459-0.83548zm4.6696-8.5219c0-0.36761-0.28302-0.66839-0.62894-0.66839-0.34591 0-0.81483 0.30078-1.042 0.66839-0.2272 0.36761 0.0558 0.66838 0.62894 0.66838 0.57311 0 1.042-0.30077 1.042-0.66838zm109.62-11.402c0-0.38931-0.30077-0.52194-0.66839-0.29475-0.36761 0.2272-0.66838 0.54573-0.66838 0.70784s0.30077 0.29474 0.66838 0.29474c0.36762 0 0.66839-0.31852 0.66839-0.70783z" fill="#f7cf6c"/>
     <path d="m-31.82 618.05c-8.8307-0.40834-9.696-0.57439-15.373-2.9503-3.3085-1.3847-7.5803-3.5547-9.4928-4.8223-1.9126-1.2676-6.0023-3.3616-9.0884-4.6534-4.9344-2.0656-6.5098-3.199-13.065-9.3994-4.0998-3.8778-7.4542-7.469-7.4542-7.9803 0-2.5899 5.7428-8.3142 8.341-8.3142 0.51116 0 1.7063-0.29538 2.6558-0.65641l1.7265-0.65639-1.3488-1.3488c-0.74181-0.74182-1.7072-1.3488-2.1454-1.3488-0.43813 0-2.8217 1.2031-5.2968 2.6735s-4.8236 2.6736-5.2189 2.6736c-1.8584 0 0.17697-6.0077 5.3654-15.837 7.7188-14.623 14.79-22.332 24.996-27.252 6.6854-3.2227 7.5043-3.4658 9.1918-2.7285 0.64415 0.28143 1.9396 0.31882 2.8789 0.0831 1.2812-0.32155 1.6564-0.79593 1.5024-1.8993-0.1746-1.2505 0.39505-1.686 3.805-2.9086 2.2057-0.79087 6.0597-1.643 8.5645-1.8936s5.7759-0.8867 7.2692-1.4136c1.4932-0.52685 3.6547-0.96117 4.8032-0.96515 1.1485-4e-3 3.5921-0.47796 5.4302-1.0533 2.5876-0.80995 6.2838-1.0323 16.375-0.98518 13.196 0.0616 19.621 0.9361 20.791 2.8295 0.41007 0.6635 1.0044 0.68086 2.7328 0.0798 1.2148-0.42246 4.615-1.1184 7.5558-1.5465 2.9409-0.4281 7.3021-1.4093 9.6916-2.1804 2.3895-0.77113 5.9259-1.3862 7.8587-1.3669 2.697 0.0269 3.3564-0.15498 2.8358-0.78235-0.49957-0.60195 0.36149-1.5028 3.2658-3.4167 5.0936-3.3565 8.1014-5.1112 9.7674-5.698 10.478-3.6907 20.248-4.5329 34.422-2.9674 5.3304 0.5887 11.027 1.3817 12.66 1.7623 3.7135 0.86564 12.182 6.0856 14.411 8.8832 0.92235 1.1576 2.085 2.5558 2.5835 3.1072 0.4986 0.55141 1.2896 1.7356 1.7579 2.6314 0.46822 0.89587 1.4376 2.2494 2.1543 3.0077 0.71661 0.75838 2.0696 2.677 3.0067 4.2636 1.6238 2.7494 1.7074 3.3867 1.7815 13.588 0.0722 9.9375-0.0178 10.783-1.259 11.82-0.90175 0.75328-1.3887 2.0756-1.4964 4.0633-0.17843 3.293-0.67706 4.2016-5.4592 9.9479-3.9936 4.7989-16.528 13.472-24.124 16.694-14.525 6.1594-24.291 9.04-38.098 11.238-5.5448 0.88268-9.774 1.0429-20.146 0.76334l-13.128-0.35387-4.0737 1.9403c-2.2405 1.0672-4.8404 1.9403-5.7775 1.9403-0.93709 0-3.9746 1.2031-6.7499 2.6736-2.7754 1.4704-5.9007 2.6735-6.9451 2.6735s-5.0041 1.0816-8.7993 2.4034c-16.373 5.7028-20.419 6.343-35.641 5.6392zm-2.3394-3.3189c0-0.71852-2.6002-1.678-3.125-1.1531-0.1929 0.19291-0.15249 0.67154 0.0898 1.0636 0.5418 0.87664 3.0352 0.95017 3.0352 0.0895zm14.036-3.1009c0-0.53451 1.3406-1.6231 2.9791-2.4192 2.8094-1.3649 3.3709-1.4066 9.8587-0.7312 3.8477 0.40053 7.1498 0.46274 7.4927 0.14116 0.68326-0.6408-0.0689-0.97137-3.6208-1.5914-1.2866-0.22458-3.0638-1.0116-3.9492-1.7489l-1.6099-1.3406 2.031-2.1464c1.117-1.1805 2.3388-2.7491 2.7151-3.4857 0.61272-1.1997 0.46769-1.3391-1.3908-1.3368-1.7724 2e-3 -2.1681-0.31829-2.714-2.1984-0.88724-3.0557 0.0313-3.7213 5.5673-4.0341 4.4819-0.25325 4.6491-0.20659 5.055 1.4107 0.2496 0.99449-9e-3 2.5013-0.63716 3.7166-1.437 2.7788-1.3295 3.5788 0.4469 3.3265 1.237-0.17569 1.5392-0.69543 1.7033-2.9292 0.26873-3.6595 2.5345-4.9955 9.0177-5.3172 5.5528-0.27552 7.4282-0.50655 12.505-1.5405 2.0219-0.41174 4.7627-0.91345 6.0908-1.1149 1.3281-0.20146 2.9823-1.0129 3.6761-1.8033 1.2412-1.414 1.24-1.428-0.0753-0.87562-0.73523 0.30877-2.5399 0.65988-4.0103 0.78023s-3.2583 0.29467-3.973 0.3874c-1.0458 0.13568-1.4179-0.41413-1.906-2.8165-0.42168-2.0755-0.38214-3.0599 0.1298-3.2305 0.40496-0.13498 0.73629-0.55662 0.73629-0.93697 0-0.38036 0.94082-1.7631 2.0907-3.0727 2.0452-2.3294 2.0597-2.3926 0.66839-2.9073-0.78228-0.28939-1.4223-1.1006-1.4223-1.8026 0-0.70206-0.45116-1.6509-1.0026-2.1085-1.499-1.2441-1.241-1.9096 1.3278-3.4252 1.9729-1.164 2.2249-1.572 1.6429-2.6595-0.527-0.98472-0.96867-1.1341-1.8921-0.63984-1.5249 0.81612-8.6147 1.0845-10.603 0.40143-1.1668-0.40087-1.5039-0.26565-1.5039 0.60331 0 0.61599-0.22558 0.97998-0.50128 0.80888-0.27571-0.17111-0.50129-2.5199-0.50129-5.2194v-4.9083l2.4151-0.202c1.8268-0.15279 2.6022-0.61273 3.1833-1.8882 1.0435-2.2902 0.3947-3.0418-2.2047-2.5542-1.9705 0.36966-2.2666 0.20871-3.0367-1.6504-0.46932-1.133-1.1012-2.0601-1.4041-2.0601-0.30296 0-0.9432-0.80491-1.4228-1.7887-0.47958-0.98378-1.2479-1.9112-1.7074-2.0608-1.2684-0.41316-0.99815 1.6817 0.39686 3.0767 0.67778 0.67778 1.4241 2.1912 1.6585 3.3632 0.37548 1.8774 0.20901 2.2186-1.3994 2.868-1.0041 0.40544-2.8038 0.72639-3.9993 0.71322-1.1955-0.0132-2.3412 0.24708-2.5459 0.57833-1.0001 1.6182-9.9905-0.60879-10.6-2.6258-0.55795-1.8451-0.23363-5.4248 0.5502-6.0728 0.40354-0.33363 1.6128-0.70842 2.6873-0.83284 1.0745-0.12444 2.0643-0.56391 2.1996-0.97663 0.46122-1.407-2.6363-1.5087-5.9669-0.19591-2.477 0.97633-4.1413 1.2016-6.5338 0.88417-2.8346-0.37603-3.2604-0.26798-3.6385 0.92334-0.23552 0.74206-2.06 2.473-4.0543 3.8466-3.5237 2.4268-3.674 2.466-5.3225 1.3858-1.2624-0.82718-1.6964-1.6895-1.6964-3.3705 0-1.996 0.42672-2.5422 3.6659-4.6923 3.0323-2.0127 3.8988-2.3087 5.0129-1.7124 1.5216 0.81431 1.7589 0.12458 0.51148-1.4865-0.76015-0.98175-1.126-0.93639-4.0571 0.50308-1.7719 0.87016-4.3285 1.6742-5.6813 1.7868-2.3948 0.19926-2.4546 0.26991-2.2674 2.6809 0.16785 2.1618-0.0614 2.6074-1.8049 3.509-1.0984 0.56801-2.7394 1.0328-3.6466 1.0328-2.8424 0-3.8231 0.64579-3.0824 2.0298 0.50763 0.94852 1.1665 1.1451 2.8966 0.86436 1.6728-0.27146 2.3438-0.0916 2.6516 0.71056 0.45959 1.1977-0.33872 1.3149-4.3917 0.64498-2.225-0.36777-2.5064-0.63196-2.5064-2.353 0-1.1228-0.42996-2.1037-1.0217-2.3307-0.70959-0.27229-0.9648-1.1302-0.83548-2.8086 0.1439-1.8676 0.68284-2.7582 2.3728-3.9211 1.2026-0.82749 2.7065-1.4616 3.3419-1.409 0.63544 0.0525 2.0508 0.0479 3.1453-0.0104l1.99-0.10589-1.8283-1.8283c-1.5762-1.5762-2.0106-1.7145-3.1506-1.0026-0.72724 0.45416-1.9415 0.82575-2.6985 0.82575-1.5815 0-4.9185 3.047-4.348 3.9702 0.20975 0.33937-0.16148 1.0136-0.82496 1.4983-1.9375 1.4153-4.029 5.5579-4.0347 7.9913-3e-3 1.236-0.10818 2.6985-0.23394 3.2499-0.46247 2.0278 1.7967 0.93404 2.416-1.1697 0.35172-1.1947 0.8459-2.1722 1.0982-2.1722 0.66138 0 1.3399 2.0198 0.91141 2.7131-0.19964 0.32302 0.22163 1.7246 0.93614 3.1145l1.2991 2.5272 0.81215-1.7771c0.67347-1.4736 1.3408-1.825 3.9075-2.0577 1.7024-0.15432 3.4802 0.0128 3.9506 0.37149 0.56478 0.43059 1.4413 0.38505 2.5806-0.13406 1.7292-0.7879 1.8707-1.888 0.62194-4.8383-0.8938-2.1117 1.541-2.0172 2.6371 0.10235 0.9298 1.798 0.92116 2.1503-0.0937 3.8202-0.61486 1.0118-2.2013 2.8298-3.5254 4.04l-2.4075 2.2004 2.6736-0.44681c1.7049-0.28493 3.1954-1.0822 4.114-2.2004 0.79228-0.9645 1.6946-1.7636 2.0052-1.7758 0.31055-0.0122 1.9181-0.90839 3.5724-1.9915 4.3193-2.828 12.096-7.0095 13.036-7.0095 0.0965 0 0.34279 0.63982 0.54729 1.4218 0.52404 2.0039-1.3912 4.735-2.9694 4.2341-0.89669-0.2846-2.0782 0.493-4.2625 2.8054-1.6621 1.7595-2.9205 3.508-2.7964 3.8857 0.391 1.1904 2.9962 1.1932 3.2391 3e-3 0.13061-0.63987 1.7526-1.6325 3.8998-2.3866 2.0219-0.71007 3.7764-1.5882 3.8989-1.9513 0.36064-1.0688 2.6054-0.7554 3.0592 0.42703 0.48348 1.2599-0.67925 2.923-2.0436 2.923-0.51549 0-1.2132 0.72565-1.5504 1.6126-0.54561 1.4351-0.91162 1.5725-3.3254 1.2488-2.2112-0.29651-2.7123-0.16225-2.7123 0.72687 0 1.2752-2.0939 1.4478-4.1586 0.34284-1.1682-0.62519-1.5821-0.50263-2.5252 0.74775-0.92846 1.2309-1.3674 1.3674-2.481 0.77142-0.98153-0.52531-1.264-1.1893-1.029-2.4187 0.17816-0.93205 0.0483-1.6946-0.28868-1.6946-1.1055 0-2.2168 1.5748-2.2168 3.1414 0 0.92089-0.402 1.5373-1.0026 1.5373-0.55142 0-1.0026-0.30077-1.0026-0.66839 0-1.345-1.9703-0.61147-4.3267 1.6109-1.3292 1.2536-2.9048 2.4666-3.5013 2.6955-1.4292 0.54844-0.25697 1.7743 2.6371 2.7578 2.8051 0.95322 3.0176 2.0003 0.65402 3.2225-2.8681 1.4832-6.1573 5.5176-6.1573 7.5524 0 1.6543-0.0677 1.69-1.2223 0.64513-1.8674-1.69-2.4053-1.3841-3.9355 2.2379-1.1746 2.7801-1.676 3.3155-2.9733 3.1748-1.2568-0.1363-1.6016 0.18847-1.7719 1.6688-0.17286 1.5022 0.0518 1.8381 1.2296 1.8381 0.79262 0 1.9812-0.66699 2.6413-1.4822 1.0272-1.2685 1.3558-1.3531 2.2794-0.58654 1.4363 1.192 1.3726 1.6174-0.59177 3.952-0.91904 1.0922-1.671 2.2701-1.671 2.6175 0 0.95639 3.3348 2.2754 4.6764 1.8496 0.71922-0.22827 1.338 0.0348 1.5829 0.67302 0.49102 1.2796-1.2604 2.095-2.4245 1.1288-0.63652-0.52826-0.83213 0.0317-0.84934 2.4317-0.0256 3.5699 0.47849 4.1632 2.9419 3.4622 1.3484-0.38368 2.1494-0.14868 3.4301 1.0064 1.8593 1.6768 4.6787 2.7569 4.6787 1.7923 0-0.34281-0.60155-1.388-1.3368-2.3227-0.73522-0.93468-1.3368-2.028-1.3368-2.4295 0-0.40153-0.41433-0.73005-0.92074-0.73005s-1.2546-0.40227-1.6626-0.89392c-0.56675-0.68288-0.3579-1.2546 0.88465-2.422l1.6265-1.528 2.2083 1.2861c1.2298 0.71623 2.303 1.9375 2.4219 2.7562 0.16772 1.1543 0.67008 1.4759 2.3394 1.4972 2.7437 0.0351 6.6898 3.2256 5.7762 4.6702-0.84698 1.3393-0.82547 5.5203 0.0257 4.9942 0.36761-0.22719 0.66838-0.8504 0.66838-1.3849zm4.0103-8.5753c0-1.0576 4.0025-3.8255 4.8101-3.3263 0.28843 0.17825-0.13087 1.2104-0.93177 2.2937-1.5093 2.0414-3.8783 2.6722-3.8783 1.0326zm-4.5163-1.1732c-1.6297-1.6297-0.61711-6.2874 1.9665-9.0457 1.1668-1.2456 1.2651-1.7694 0.65864-3.509-0.39207-1.1247-0.62299-2.0448-0.51316-2.0448 0.10982 0 1.1653 0.33662 2.3455 0.74804 1.448 0.50478 2.0246 1.0639 1.7731 1.7194-0.20501 0.53424-0.0521 1.5703 0.33964 2.3024 0.51156 0.95589 0.49915 1.588-0.0441 2.2425-0.60434 0.72818-0.37847 0.95477 1.1233 1.127 2.8989 0.33236 2.4231 2.1757-0.62673 2.4281-1.3785 0.11409-2.551 0.56525-2.6054 1.0026-0.0544 0.43732-0.12963 1.3967-0.1671 2.1319-0.0806 1.5821-2.9581 2.1898-4.2502 0.89763zm-11.525-9.2152c0-1.7424 2.9101-5.0618 3.9008-4.4494 1.2386 0.76553 0.90449 2.9054-0.68494 4.3861-1.8455 1.7193-3.2159 1.7463-3.2159 0.0633zm39.282-6.1886c-0.90031-0.84428-1.9765-2.3554-2.3916-3.3579-0.67535-1.6312-0.57283-1.9475 0.97479-3.0077 2.6325-1.8035 4.9918-4.3489 5.6714-6.1189 0.57087-1.4868 0.69094-1.52 1.8166-0.50129 0.66291 0.59993 1.7546 1.0908 2.4259 1.0908 1.1699 0 1.1714-0.0544 0.0352-1.3098-1.7907-1.9787-0.89372-4.4254 1.9689-5.3701 3.8607-1.2742 5.1515-0.73621 5.4159 2.2571 0.12609 1.4274-0.0544 3.1252-0.40109 3.773-0.44035 0.8228-0.35215 1.4087 0.2926 1.9438 1.7009 1.4116 1.8596 3.916 0.34423 5.4314-0.80651 0.80651-1.2284 1.8421-0.99664 2.4462 0.65662 1.711-1.5624 3.5278-4.3089 3.5278-2.597 0-4.3571-1.337-4.7768-3.6286-0.39275-2.1446-1.4856-1.5426-2.2692 1.25-0.90701 3.2327-1.688 3.5562-3.8013 1.5743zm-8.8695-2.262-1.8738-2.4567 1.5135-1.1417c0.85244-0.64299 2.2104-1.0084 3.1088-0.8367 1.7923 0.34263 2.1854 1.4859 0.51089 1.4859-0.78729 0-0.89673 0.22893-0.39942 0.83548 0.37676 0.45952 0.78955 1.58 0.91733 2.49 0.36838 2.6236-1.642 2.4233-3.7773-0.37627zm-27.5 0.72694c1.1589-1.1589 2.1812-1.2853 2.7643-0.34185 0.22804 0.36898-0.0199 0.49642-0.56133 0.28863-0.53333-0.20466-1.1682-0.0508-1.4109 0.34185-0.24269 0.39267-0.74575 0.71395-1.1179 0.71395-0.37217 0-0.22552-0.45116 0.3259-1.0026zm23.942-6.7979c0.11861-0.61157 0.59162-1.2371 1.0511-1.3901 1.2289-0.40919 1.02 1.6246-0.21565 2.0987-0.73301 0.28128-0.98588 0.0668-0.83549-0.70858zm8.3924-3.2946c-1.3798-1.3798 2.9998-4.9462 6.0739-4.9462 1.5144 0 0.77176 1.2117-1.1541 1.883-1.0682 0.37237-2.1411 1.3041-2.3844 2.0705-0.42447 1.3374-1.6938 1.8343-2.5354 0.99265zm-27.226-6.59c0-0.18137 0.93688-0.81424 2.082-1.4064 1.457-0.75344 2.2931-0.86548 2.7853-0.37327 0.75026 0.75026 0.37775 0.96014-3.0292 1.7067-1.0109 0.22152-1.8381 0.25436-1.8381 0.073zm12.699-0.60326c0-0.79574 1.3153-1.766 2.394-1.766 0.82634 0 0.094 1.3891-1.0572 2.0052-1.0467 0.56019-1.3368 0.5083-1.3368-0.23917zm14.972-1.2048c-0.50029-0.80949-0.26805-1.0416 1.3337-1.3331 0.69709-0.12685 1.3861 0.10703 1.5312 0.51975 0.33147 0.94297-2.3196 1.6956-2.8649 0.81336zm-34.655-0.50408c-0.2152-0.34821-0.10638-0.80918 0.24183-1.0244 0.3482-0.21521 0.80918-0.10639 1.0244 0.24182 0.2152 0.34821 0.10638 0.80918-0.24183 1.0244-0.34821 0.21521-0.80918 0.10639-1.0244-0.24182zm27.523-1.2268c-0.93318-1.0345-0.94157-1.3242-0.0725-2.5064 0.54043-0.73522 1.3446-1.3773 1.787-1.4268 0.44244-0.0495 1.1601-0.12469 1.5949-0.1671 0.43474-0.0424 0.95923-0.60345 1.1655-1.2468 0.42553-1.327 5.9825-3.8452 7.0413-3.1909 0.8656 0.53498 0.89211 4.3497 0.0396 5.6973-0.42508 0.67194-1.7419 1.0052-3.9928 1.0106-2.7146 7e-3 -3.5595 0.29486-4.4063 1.5039-1.2623 1.8022-1.7771 1.8554-3.1567 0.32615zm-20.54 46.954c0-0.55699-0.59412-1.0026-1.3368-1.0026-0.74265 0-1.3368 0.44559-1.3368 1.0026 0 0.55698 0.59412 1.0026 1.3368 1.0026 0.74265 0 1.3368-0.4456 1.3368-1.0026zm-28.741-2.3394c0-0.36762-0.45116-0.66839-1.0026-0.66839-0.55142 0-1.0026 0.30077-1.0026 0.66839 0 0.36761 0.45116 0.66838 1.0026 0.66838 0.55142 0 1.0026-0.30077 1.0026-0.66838zm-2.6735-2.3394c0-1.0397-0.37876-1.671-1.0026-1.671-1.0025 0-1.3978 2.0555-0.55699 2.8963 0.90874 0.90874 1.5596 0.39738 1.5596-1.2254zm10.026-5.1369c0-0.43582-0.66594-1.5013-1.4799-2.3677-1.2806-1.3631-1.3637-1.7612-0.6173-2.9564 0.71021-1.1372 0.70597-1.3292-0.024-1.0868-0.48762 0.16194-1.1687 1.0926-1.5135 2.0682-0.5165 1.4614-0.34886 2.0697 0.95199 3.4544 1.7096 1.8197 2.6827 2.1419 2.6827 0.88825zm71.384-3.3516c1.4635-1.4635 0.83067-1.9206-1.2031-0.8689-1.1028 0.5703-2.0052 1.1796-2.0052 1.3539 0 0.65412 2.4376 0.28559 3.2082-0.48504zm-5.9892-1.5412c0.12622-0.12623 0.0396-0.82795-0.1926-1.5594-0.40736-1.2835-0.47948-1.2725-2.0662 0.31421-0.90426 0.90425-1.6441 1.8134-1.6441 2.0204 0 0.36652 3.4455-0.31782 3.9029-0.77518zm-21.281-1.667c0-0.36761-0.30077-0.66839-0.66839-0.66839-0.36761 0-0.66838 0.30078-0.66838 0.66839s0.30077 0.66839 0.66838 0.66839c0.36762 0 0.66839-0.30078 0.66839-0.66839zm83.674-1.7934c-0.48249-0.19308-1.059-0.16934-1.2811 0.0527-0.2221 0.2221 0.17267 0.38008 0.87725 0.35105 0.77864-0.0321 0.93701-0.19044 0.40382-0.40381zm-137.53-1.9305c1.3976-1.3976 1.3272-2.7648-0.18405-3.5736-1.512-0.80918-2.7759 0.24121-2.7759 2.3068 0 2.4607 1.2368 2.99 2.96 1.2668zm97.781-8.6764c-0.80497-2.6229-2.8532-4.2116-3.9786-3.0862-0.45928 0.45928-0.13008 1.2272 1.0184 2.3758 1.1683 1.1683 1.5799 2.1452 1.321 3.1352-0.33379 1.2764-0.22149 1.3554 0.99854 0.70246 1.2299-0.6582 1.2973-0.98755 0.64063-3.1273zm-96.836 0.45886c0.94907-3.1677 0.97313-4.0999 0.1058-4.0999-0.36762 0-0.66839 0.35658-0.66839 0.79241 0 0.43582-0.61005 1.4418-1.3557 2.2354-0.81238 0.86474-1.1855 1.8865-0.93106 2.5495 0.7284 1.8982 2.042 1.217 2.8493-1.4775zm6.4202-0.14664c-0.2152-0.34821-0.67617-0.45703-1.0244-0.24182-0.34821 0.2152-0.45703 0.67617-0.24182 1.0244 0.21519 0.34821 0.67617 0.45703 1.0244 0.24182 0.34821-0.2152 0.45702-0.67617 0.24182-1.0244zm-8.9879-5.0867c1.6543-0.19072 3.3716-0.64205 3.8164-1.003 0.48717-0.39535 2.7872-0.4708 5.786-0.1898 4.5834 0.4295 5.0352 0.35833 5.7081-0.89909 1.1445-2.1385 0.88747-3.2336-1.3594-5.7927-2.2262-2.5355-3.6503-2.641-6.1377-0.45461-0.92339 0.81168-2.3915 1.0195-6.2005 0.87761-2.7449-0.10223-6.0206 0.15404-7.2794 0.56947-1.6092 0.53108-2.6756 0.54828-3.5918 0.058-1.7958-0.9611-5.6074 0.44439-7.3971 2.7276l-1.3937 1.7781 3.7022-0.8606c3.6065-0.83836 3.7534-0.8157 5.6826 0.8772 1.0892 0.95579 1.9804 2.157 1.9804 2.6695 0 0.68501 0.48661 0.80689 1.8381 0.46038 1.0109-0.2592 3.1915-0.6273 4.8458-0.81802zm147.04-1.5795c0-0.34592-0.45116-0.62894-1.0026-0.62894-1.0336 0-1.3279 0.78867-0.57516 1.5414 0.53399 0.53399 1.5777-0.0696 1.5777-0.91246zm25.228 0.49228c0.45754-0.29 1.1643-1.1484 1.5706-1.9075 0.80775-1.5093 0.036-1.2914-2.1932 0.61922-1.2457 1.0676-2.5486 0.62035-2.5486-0.87498 0-0.52972-0.54139-0.96313-1.2031-0.96313-0.6617 0-1.5137-0.31063-1.8934-0.69029-0.37967-0.37967-1.1325-0.52062-1.6729-0.31323-1.0492 0.4026-3.4058 3.9681-2.9343 4.4396 0.50386 0.50386 10.019 0.23292 10.875-0.30966zm-13.982-2.0177c0.19581-1.7107 0.0632-1.8524-1.3368-1.4288-2.1669 0.65574-2.8031 1.3874-2.3143 2.6614 0.72125 1.8796 3.3983 0.97578 3.6511-1.2326zm-138.91-1.4823c0-0.52972-0.30077-0.96313-0.66838-0.96313-0.36762 0-0.66839 0.6193-0.66839 1.3762 0 0.75692 0.30077 1.1903 0.66839 0.96313 0.36761-0.2272 0.66838-0.8465 0.66838-1.3762zm82.251-0.4066c3.0146-2.4226 3.1668-2.8981 1.2548-3.9213-1.7112-0.91583-3.3107 0.16872-2.8495 1.9322 0.17141 0.65548-0.16041 1.5836-0.73739 2.0624-1.0251 0.85073-1.4195 2.0437-0.67566 2.0437 0.20536 0 1.5588-0.95265 3.0077-2.117zm51.556 0.42792c0.98996-2.1727-0.15491-3.6872-1.7725-2.3447-1.5561 1.2914-1.2627 4.0338 0.4316 4.0338 0.31422 0 0.91764-0.76009 1.3409-1.6891zm-36.891 0.35232c0-0.36761-0.30077-0.66838-0.66839-0.66838-0.36761 0-0.66838 0.30077-0.66838 0.66838 0 0.36762 0.30077 0.66839 0.66838 0.66839 0.36762 0 0.66839-0.30077 0.66839-0.66839zm-3.0363-0.6222c0.66968-1.0836-0.78554-1.4128-1.6485-0.37302-0.67157 0.8092-0.63063 0.99522 0.21902 0.99522 0.57473 0 1.218-0.27999 1.4295-0.6222zm32.946-5.1149c-0.63693-0.63694-1.9139 0.39475-1.4392 1.1628 0.28214 0.45651 0.65599 0.44498 1.136-0.035 0.39351-0.39352 0.52996-0.901 0.30321-1.1278zm-126.93-2.6492c1.6365-3.5917 0.46421-6.636-2.2791-5.9186-1.0245 0.26791-1.3325 0.96176-1.3969 3.1469-0.1291 4.3812 2.1573 6.1051 3.676 2.7717zm110.53-1.2667c4.7237-1.9737 5.2622-5.1153 0.76048-4.4366-3.6851 0.55551-6.902 3.1304-5.9121 4.7322 0.5803 0.93895 2.4543 0.83143 5.1516-0.29557zm34.304-0.38c0.83487-0.92253 1.4416-1.135 1.9082-0.66838 0.96155 0.96154 5.9852 0.85372 7.0506-0.15131 0.70849-0.66838 0.94688-0.66838 1.192 0 0.16849 0.45952 0.74462 0.83549 1.2803 0.83549 1.0782 0 4.9301-2.6526 4.9301-3.3952 0-0.83903-3.5135-1.3794-4.2407-0.65215-1.1586 1.1586-3.682 0.80049-4.4483-0.63139-0.94176-1.7597-1.8602-1.6971-2.1258 0.1448-0.29314 2.0334-4.0673 3.1619-5.7336 1.7143-0.64013-0.55614-2.0662-1.2254-3.169-1.4872-1.1028-0.26182-2.5753-0.97895-3.2721-1.5936-1.2174-1.0739-1.2485-1.0392-0.79499 0.88756 0.25956 1.1028 0.63783 2.8296 0.84059 3.8371 0.30992 1.5401 0.62297 1.7682 1.9646 1.4314 0.96341-0.2418 1.596-0.10693 1.596 0.34027 0 1.1954 1.6976 0.85179 3.022-0.61172zm-72.868 0.0158c0.2272-0.36762-0.20621-0.66839-0.96313-0.66839s-1.3762 0.30077-1.3762 0.66839c0 0.36761 0.43341 0.66838 0.96313 0.66838s1.149-0.30077 1.3762-0.66838zm-92.878-1.2923c-0.24231-0.39207-0.76042-0.71285-1.1514-0.71285-0.4432 0-0.39249 0.38351 0.1347 1.0187 0.91671 1.1046 1.736 0.85808 1.0166-0.30588zm149.36-0.65818c0-1.7463-0.68426-3.3966-1.4083-3.3966-0.32827 0-0.59687 1.0527-0.59687 2.3394 0 1.6338 0.30236 2.3394 1.0026 2.3394 0.55142 0 1.0026-0.57695 1.0026-1.2821zm-152.04-0.0841c0.23719-0.38377-0.0459-1.4259-0.62893-2.3158-0.58311-0.88993-1.0602-1.7713-1.0602-1.9586 0-0.80092 4.185-2.4147 5.3242-2.0531 0.68592 0.2177 1.4406 0.0828 1.677-0.29975 0.24171-0.39111-0.14122-0.69558-0.87482-0.69558-0.71759 0-1.4778-0.45116-1.6894-1.0026-0.44761-1.1665-2.81-1.3445-3.4789-0.26219-0.28362 0.45892-1.4421 0.58297-3.0472 0.3263-2.9478-0.47138-3.3419 0.39745-1.5916 3.5089 0.5489 0.97575 1.2934 2.6012 1.6544 3.6122 0.66623 1.8655 2.8525 2.5365 3.7154 1.1403zm24.378-4.6888c0-0.34592-0.30078-0.62894-0.66839-0.62894s-0.66838 0.46891-0.66838 1.042c0 0.57311 0.30077 0.85613 0.66838 0.62894 0.36761-0.2272 0.66839-0.69612 0.66839-1.042zm114.29-2.7159c0-0.69022-0.22842-1.2549-0.50761-1.2549-0.83342 0-2.2445 2.6741-1.7949 3.4016 0.60298 0.97563 2.3025-0.60886 2.3025-2.1466zm23.653-1.2716c0.26112-1.6329 0.71297-2.548 1.1307-2.2898 0.3827 0.23651 1.5247 0.0867 2.5377-0.33293 1.2671-0.52484 2.384-0.55684 3.5789-0.10254 1.6909 0.64288 2.5191 3e-3 2.5191-1.9464 0-0.94023-2.8273-1.6218-5.8422-1.4084-2.4943 0.17654-2.9105 6.7e-4 -3.4678-1.4651-0.34832-0.91614-0.95264-1.8631-1.3429-2.1043-0.39028-0.2412-0.70961-1.9247-0.70961-3.741 0-3.3575-0.0128-3.336 4.0939-6.8951 1.7963-1.5568 1.5591-2.2167-0.96704-2.6906-1.2211-0.22909-3.2346-1.1649-4.4744-2.0796-1.2398-0.91466-2.6266-1.663-3.0818-1.663-0.96251 0-1.8617-2.3554-1.2667-3.3182 0.22318-0.3611-0.20857-1.1826-0.95944-1.8255-0.75086-0.64291-1.3698-1.9292-1.3754-2.8584-8e-3 -1.3519-0.14422-1.4892-0.68062-0.68694-0.58198 0.87036-0.76489 0.84189-1.3871-0.21591-0.66778-1.1354-0.79985-1.1432-1.9356-0.11538-0.67041 0.60672-1.7711 1.0452-2.4459 0.97443-3.4825-0.36525-4.0759 1.2927-0.8928 2.4942 2.5291 0.95463 2.8442 3.2336 0.36093 2.6104-1.229-0.30846-1.8257-0.0735-2.3629 0.93012-0.89789 1.6777-1.7992 1.7179-2.3118 0.10294-0.24061-0.7581-1.7163-1.6671-3.7979-2.3394-5.16-1.6665-5.9244-1.5137-5.9244 1.1841 0 1.7111-0.46081 2.6296-1.8381 3.6635-1.44 1.0811-1.6411 1.5096-0.92858 1.979 1.3079 0.86151 3.1849 0.19729 3.8866-1.3753 0.58872-1.3194 0.65995-1.3069 2.7966 0.49095 1.6429 1.3824 1.9713 1.9816 1.3102 2.3903-0.70584 0.4364-0.65113 0.77662 0.27366 1.7016 1.0957 1.096 1.2454 1.0721 2.8756-0.45938 1.2106-1.1373 1.6097-2.0539 1.3481-3.0962-0.20439-0.81436-0.10465-1.6456 0.22164-1.8473 0.53539-0.33088 1.1892 0.92424 2.367 4.5436 0.32173 0.98872 0.82918 1.1668 2.4191 0.84877 1.7965-0.35929 2.1292-0.15666 3.1059 1.8916 0.89116 1.8688 0.93692 2.4831 0.24686 3.3146-0.62924 0.7582-1.1697 0.84796-2.1019 0.34908-0.95434-0.51075-2.0579-0.26462-4.6085 1.0279-3.1009 1.5713-3.6705 1.5925-3.4176 0.12719 0.0519-0.30094-0.73957-0.45133-1.7589-0.33419-1.4409 0.16557-1.899 0.60749-2.0585 1.9857-0.14335 1.2384-0.8074 2.0222-2.2032 2.6003-1.2498 0.51767-1.9192 1.2305-1.7876 1.9034 0.16418 0.83937 0.97879 1.0559 3.707 0.98551l3.4966-0.0903v2.241c0 2.0432 0.13271 2.1919 1.5039 1.6847 0.97533-0.36079 1.7587-1.469 2.2289-3.1533 0.79306-2.8406 2.9845-4.4634 5.4575-4.0415 1.0723 0.18294 1.5039-0.0707 1.5039-0.88391 0-0.62727 0.54483-1.6336 1.2107-2.2362 1.022-0.92488 1.543-0.97028 3.3419-0.29125 1.1722 0.44244 2.1312 1.1529 2.1312 1.5789 0 1.2773-2.0988 5.914-2.9158 6.4416-0.49174 0.31757-0.36682 0.49467 0.35362 0.50129 0.61268 5e-3 1.2323-0.34465 1.3768-0.7784 0.30811-0.92433 2.5221-0.25046 2.5221 0.76766 0 0.37915-0.58379 0.68936-1.2973 0.68936-0.71353 0-1.4922 0.31538-1.7305 0.70084-0.28013 0.45326-0.70728 0.47373-1.2091 0.058-0.96904-0.80283-3.7837 1.3227-3.7837 2.8574 0 1.2467 1.5087 1.3753 3.5181 0.29989 0.78377-0.41945 2.6965-0.84765 4.2504-0.95153 2.8097-0.18783 2.8279-0.17426 3.269 2.4365 0.54213 3.2088 1.3389 2.9024 1.9212-0.73892zm-10.158-18.83c-2.4987-2.4987 0.82894-6.6327 4.1287-5.1292 2.3824 1.0855 2.208 3-0.4192 4.6018-2.5539 1.5571-2.6641 1.5728-3.7095 0.52738zm-2.4938-8.5889c-0.61389-0.99328-0.12566-1.3449 0.94694-0.68202 0.57463 0.35514 0.64299 0.6996 0.19393 0.97714-0.38146 0.23575-0.89485 0.10295-1.1409-0.29512zm30.785 25.601c-0.5664-2.2567-0.8753-2.5968-1.6304-1.7949-0.74155 0.78753 0.29924 3.6316 1.329 3.6316 0.4978 0 0.6024-0.63743 0.3014-1.8367zm-90.163-2.6161c0.56107-2.2355-0.23804-2.7899-1.4753-1.0235-0.73668 1.0518-1.6016 1.415-3.0867 1.2964-1.1348-0.0906-2.1847 0.17654-2.3331 0.59364-0.1783 0.50112 0.87618 0.75835 3.1087 0.75835 3.0208 0 3.4217-0.17203 3.7864-1.625zm5.2367 0.0503c0.62307-0.95093 0.95527-1.9066 0.7382-2.1236-0.4798-0.4798-3.0541 2.1806-3.0541 3.1562 0 1.2501 1.1587 0.73341 2.3159-1.0326zm-87.201-0.841c0-1.002-2.5664-2.9222-3.2998-2.469-0.97184 0.60063-0.89569 2.1792 0.12499 2.5911 1.3701 0.55286 3.1748 0.48343 3.1748-0.12213zm120.31-1.4404c0-0.36761-0.30077-0.66838-0.66838-0.66838-0.36762 0-0.66839 0.30077-0.66839 0.66838s0.30077 0.66839 0.66839 0.66839c0.36761 0 0.66838-0.30078 0.66838-0.66839zm62.008-1.0732c1.2033-0.55514 2.0344-1.2575 1.8469-1.5609-0.18748-0.30334-1.9781-0.75609-3.979-1.0061-2.001-0.25001-3.9968-0.88671-4.4352-1.4149-1.1119-1.3397-1.9701-1.1971-1.9701 0.32749 0 1.2622-3.2114 3.3909-5.1156 3.3909-0.87673 0-1.2107 0.80311-0.59152 1.4223 0.71335 0.71336 12.215-0.22228 14.245-1.1588zm-151.45-1.08c-0.4796-0.47961-0.79092-0.51907-0.79092-0.10026 0 0.37987 0.20052 0.89118 0.44559 1.1362 0.24508 0.24508 0.60099 0.2902 0.79093 0.10026 0.18993-0.18993-0.0106-0.70124-0.4456-1.1362zm48.218-2.6315c-0.17719-3.1698-0.84787-4.1365-2.4446-3.5238-1.38 0.52955-1.4132 1.2097-0.11177 2.2898 0.55142 0.45764 1.0026 1.5472 1.0026 2.4212 0 0.87402 0.38453 1.5891 0.85451 1.5891 0.58151 0 0.80492-0.88695 0.69931-2.7763zm-84.559 0.81291c0.16709-0.50129-0.0836-0.75193-0.58484-0.58484-0.48249 0.16083-1.0088 0.68718-1.1697 1.1697-0.1671 0.50129 0.0835 0.75193 0.58483 0.58484 0.48249-0.16084 1.0088-0.68719 1.1697-1.1697zm103.06-0.71016c0-0.36761-0.30077-0.66838-0.66838-0.66838-0.36762 0-0.66839 0.30077-0.66839 0.66838s0.30077 0.66839 0.66839 0.66839c0.36761 0 0.66838-0.30078 0.66838-0.66839zm-96.214-1.6881c1.0846-0.56085 1.972-1.4709 1.972-2.0223 0-0.88483-0.2216-0.88798-1.8867-0.0269-2.2644 1.171-4.0212 3.069-2.8406 3.069 0.43088 0 1.6708-0.45889 2.7554-1.0197zm52.769-0.31703c0-0.36761-0.46891-0.66838-1.042-0.66838-0.57312 0-0.85614 0.30077-0.62894 0.66838 0.22719 0.36762 0.69611 0.66839 1.042 0.66839 0.34591 0 0.62893-0.30077 0.62893-0.66839zm7.8949-1.162c-0.2571-1.335-1.789-1.7831-3.1347-0.91704-1.3083 0.84201-0.30993 2.079 1.678 2.079 1.2365 0 1.6214-0.30702 1.4568-1.162zm111.08 0.49362c0-0.36761-0.30077-0.66839-0.66838-0.66839s-0.66839 0.30078-0.66839 0.66839 0.30078 0.66838 0.66839 0.66838 0.66838-0.30077 0.66838-0.66838zm-105.55-2.1c0.94859 0.0995 2.1135-0.28754 2.5887-0.8601 0.74359-0.89599 0.62737-1.041-0.83417-1.041-0.93398 0-2.1739-0.18256-2.7554-0.4057-0.69378-0.26623-1.0572-0.0364-1.0572 0.66838 0 0.59076-0.30077 1.0741-0.66839 1.0741-0.36761 0-0.66838 0.31853-0.66838 0.70784 0 0.39588 0.36802 0.48037 0.83508 0.19172 0.4593-0.28386 1.6112-0.4347 2.5598-0.3352zm108.58-1.1824c-0.43182-1.3605-2.3553-1.9865-2.3553-0.7665 0 0.81367 2.0722 2.877 2.4799 2.4693 0.17362-0.17361 0.11754-0.93986-0.1246-1.7028zm-49.472 0.61062c0.55523-0.89838-3.4683-4.8814-4.3689-4.3249-0.74283 0.45909-0.27224 2.7602 0.85181 4.1652 0.80369 1.0046 2.9351 1.1013 3.5171 0.1597zm-90.953-1.0429c1.3058-1.3058 1.3499-2.2916 0.10241-2.2916-1.9483 0-2.9117 0.76599-2.5764 2.0483 0.41007 1.5681 1.083 1.6343 2.474 0.24328zm-23.346-0.95483c0.22719-0.36762-0.0558-0.66839-0.62894-0.66839-0.57312 0-1.042 0.30077-1.042 0.66839 0 0.36761 0.28302 0.66838 0.62894 0.66838s0.81483-0.30077 1.042-0.66838zm10.382-1.3008c0.48383 0.78286 0.96289 0.80595 2.7473 0.13241 1.7934-0.67692 2.3479-0.6469 3.2575 0.17631 0.60294 0.54565 1.5237 0.98762 2.0462 0.98215 1.6781-0.0176-4.3337-4.6176-6.0681-4.6431-1.6363-0.0241-7.5375 1.942-8.391 2.7955-0.23752 0.23752-0.24909 0.72755-0.0257 1.089 0.2533 0.40985 1.43 0.25495 3.127-0.41166 2.3318-0.91593 2.8046-0.93318 3.3069-0.12057zm154.37-2.0017c0-0.78861-1.3036-1.6322-1.7824-1.1534-0.47877 0.47878 0.36483 1.7824 1.1534 1.7824 0.34592 0 0.62894-0.28302 0.62894-0.62893zm-11.192-1.1968c0.64528-0.18548 1.6379 0.0484 2.2058 0.5197 0.8501 0.70553 1.2232 0.66634 2.1113-0.22175 0.88985-0.88986 0.92816-1.2601 0.21881-2.1148-0.47295-0.56988-1.199-1.0349-1.6136-1.0333-1.2911 5e-3 -7.0551 3.1645-6.601 3.6186 0.23678 0.23677 0.89737 0.23663 1.468-3.2e-4 0.57062-0.23695 1.5654-0.58257 2.2107-0.76806zm-4.8494-0.17947c0-0.36762-0.45116-0.66839-1.0026-0.66839-0.55142 0-1.0026 0.30077-1.0026 0.66839 0 0.36761 0.45116 0.66838 1.0026 0.66838 0.55142 0 1.0026-0.30077 1.0026-0.66838zm19.383-3.0077c0-0.55699-0.59412-1.0026-1.3368-1.0026-1.3316 0-1.7386 0.71219-0.89118 1.5596 0.81404 0.81405 2.228 0.46058 2.228-0.55698zm-10.694-1.7745c0-1.023-5.1685-5.912-6.25-5.912-0.46568 0-1.4305 0.4416-2.1441 0.98133-1.2404 0.93817-1.2147 0.98225 0.58458 1.0026 2.5472 0.0287 4.4677 1.1494 4.4677 2.6069 0 0.66102 0.20052 1.4024 0.4456 1.6474 0.74181 0.74182 2.8963 0.4991 2.8963-0.32629zm-10.15-1.0662c-0.14208-0.74923-0.94054-1.2352-2.2213-1.352l-1.9994-0.18232 1.5779 1.352c1.9396 1.6619 2.9364 1.7307 2.6428 0.18233zm-5.53-2.1278c-0.24231-0.39207-0.76042-0.71285-1.1514-0.71285-0.44321 0-0.39249 0.38351 0.13469 1.0187 0.91672 1.1046 1.736 0.85808 1.0167-0.30588zm-39.875-0.65002c0.72189-0.4572 0.60131-0.68743-0.55165-1.0534-1.6572-0.52599-2.3971-0.12291-1.7364 0.94607 0.53041 0.85822 1.063 0.8832 2.288 0.1073zm36.84-0.73122c0-0.36761-0.27618-0.66838-0.61372-0.66838-0.33755 0-1.1647-0.2067-1.8381-0.45934-1.0778-0.40434-1.1145-0.32433-0.30702 0.66839 1.0029 1.233 2.7588 1.5253 2.7588 0.45933zm-28.741-3.0077c0-2.0589-1.9263-2.2678-3.623-0.39292-1.0984 1.2137-1.0952 1.2939 0.0635 1.5934 2.8387 0.73375 3.5595 0.49063 3.5595-1.2005zm6.1408-0.12239c-0.48249-0.19308-1.059-0.16934-1.2811 0.0527-0.2221 0.22211 0.17267 0.38008 0.87726 0.35105 0.77863-0.0321 0.93701-0.19045 0.40381-0.40381zm8.5314-3.6446c1.4284-2.9565 1.2981-3.9486-0.5084-3.8706-1.6201 0.07-5.1405 2.2554-5.1405 3.1911 0 0.61117 3.3953 3.4172 4.1618 3.4395 0.0833 3e-3 0.75253-1.2396 1.4871-2.76zm4.9157 1.0003c0.7117-0.71171-0.18031-1.5451-1.2248-1.1443-0.53753 0.20627-0.81092 0.6443-0.60753 0.97338 0.43325 0.70102 1.2281 0.77516 1.8323 0.17094zm-12.904-1.5777c0-0.36761-0.30078-0.66839-0.66839-0.66839s-0.66838 0.30078-0.66838 0.66839 0.30077 0.66838 0.66838 0.66838 0.66839-0.30077 0.66839-0.66838z" fill="#edb34d"/>
     <path transform="matrix(.61147 0 0 .61147 259.27 493.33)" d="m-461.54 171.96c-7.2254 0-42.148 4.817-46.965 10.838-4.817 6.0212 21.676 20.472 26.493 21.676 4.817 1.2042 28.902 8.4297 45.761 8.4297s44.557-7.2254 44.557-7.2254 19.268-7.2254 26.493-9.6339c7.2254-2.4085 25.289-12.042 25.289-12.042l33.719-10.838s30.106-2.4085 36.127-2.4085c6.0212 0 38.536-13.247 38.536-13.247s12.042-4.817 9.6339-20.472c-2.4085-15.655-19.268-21.676-19.268-21.676s-9.6339 2.4085-25.289 19.268c-15.655 16.859-39.74 13.247-39.74 13.247s-34.923 2.4085-42.148 2.4085c-7.2254 0-33.719 7.2254-39.74 12.042-6.0212 4.817-15.655 9.6339-26.493 10.838-10.838 1.2042-32.514 1.2042-32.514 1.2042z" filter="url(#a)" opacity=".37168" stroke="#000" stroke-width="1px"/>
     <path transform="matrix(.86143 0 0 .86143 352.39 37.366)" d="m-481.07 642.35c-7.2254 0-42.148 4.817-46.965 10.838-4.817 6.0212 21.676 20.472 26.493 21.676 4.817 1.2042 28.902 8.4297 45.761 8.4297s44.557-7.2254 44.557-7.2254 19.268-7.2254 26.493-9.6339c7.2254-2.4085 25.289-12.042 25.289-12.042l33.719-10.838s30.106-2.4085 36.127-2.4085c6.0212 0 38.536-13.247 38.536-13.247s12.042-4.817 9.6339-20.472c-2.4085-15.655-19.268-21.676-19.268-21.676s-9.6339 2.4085-25.289 19.268c-15.655 16.859-39.74 13.247-39.74 13.247s-34.923 2.4085-42.148 2.4085c-7.2254 0-33.719 7.2254-39.74 12.042-6.0212 4.817-15.655 9.6339-26.493 10.838-10.838 1.2042-32.514 1.2042-32.514 1.2042z" filter="url(#a)" opacity=".37168" stroke="#000" stroke-width="1px"/>
    </g>
    <g transform="matrix(.31298 0 0 .31298 663.91 -.46069)">
     <path d="m-38.838 618.68c-4.7909-0.83911-13.338-4.2732-19.07-7.6618-2.9079-1.7192-7.0469-3.8409-9.1979-4.7149-2.151-0.87403-5.7691-3.1079-8.0403-4.9642-4.2159-3.4457-11.666-11.325-14.393-15.222l-1.5167-2.1673 1.7792-5.8534c0.97859-3.2193 2.023-6.1541 2.321-6.5217 0.29794-0.36761 2.1933-3.8774 4.212-7.7996 4.6532-9.0409 9.9504-16.214 15.201-20.584 4.657-3.8756 15.572-9.5832 24.048-12.575 6.1387-2.1667 22.042-5.6215 31.643-6.874 7.7756-1.0144 27.285-0.44903 33.476 0.97012 4.3738 1.0026 5.114 0.98857 12.365-0.23467 7.7636-1.3097 16.725-4.5862 22.553-8.246 3.8267-2.4029 12.726-6.2449 17.242-7.4438 6.5544-1.7401 15.599-1.9973 26.864-0.76389 12.744 1.3954 15.643 2.1532 21.465 5.6119 5.2919 3.1439 8.2741 6.2795 14.197 14.928 3.7909 5.5349 4.1726 6.4251 4.7789 11.145 0.83461 6.4982 0.35282 15.938-0.9452 18.52-0.54843 1.0907-1.3601 3.4672-1.8038 5.281-0.56349 2.3039-2.1148 4.9732-5.1468 8.8561-2.3871 3.057-4.5924 5.5582-4.9007 5.5582s-3.8261 2.1889-7.8172 4.8642c-9.1286 6.1189-22.927 12.113-34.888 15.155-12.864 3.272-19.865 4.0817-34.863 4.0323l-14.37-0.0473-3.9374 2.0339c-2.1656 1.1187-4.7306 2.0339-5.7001 2.0339-0.96951 0-3.8875 1.0183-6.4844 2.2628-2.597 1.2446-6.0474 2.4784-7.6676 2.7419-1.6202 0.26351-6.8559 1.7849-11.635 3.3809-12.264 4.0958-17.384 4.9963-27.877 4.9035-4.8864-0.0433-10.238-0.31568-11.892-0.60542z" fill="#f1d899"/>
     <path d="m-37.947 618.07c-4.5248-0.71759-13.538-4.1863-18.22-7.0124-2.0489-1.2366-6.5827-3.6146-10.075-5.2844-8.3168-3.9765-18.399-13.099-21.475-19.431l-1.9767-4.0695 1.459-4.3445c3.8754-11.54 13.376-27.032 20.508-33.441 6.9835-6.2757 23.879-13.748 37.243-16.471 15.437-3.1455 23.805-4.2095 33.178-4.2184 8.5099-8e-3 18.631 1.2502 21.271 2.6445 1.5473 0.81722 14.932-1.6899 21.413-4.0108 3.1247-1.119 8.9742-3.8337 12.999-6.0326 12.504-6.8312 22.101-9.0295 34.791-7.9684 12.304 1.0288 19.992 1.9779 22.371 2.7616 2.8497 0.93882 13.388 7.6362 13.388 8.5084 0 0.34109 0.97751 1.8422 2.1722 3.3358 8.887 11.11 9.2032 11.91 9.3834 23.741 0.11991 7.8764-9e-3 8.9959-1.2815 11.099-0.77815 1.2866-1.6164 3.6761-1.8628 5.3098-0.32921 2.1829-1.4568 4.2875-4.2524 7.9375-3.2255 4.2111-5.1069 5.8244-12.363 10.601-12.242 8.0588-26.392 13.706-43.596 17.398-8.0914 1.7365-9.8152 1.8696-25.064 1.9357l-16.375 0.0709-3.6354 1.8296c-1.9994 1.0063-4.7064 1.9956-6.0155 2.1984-1.3091 0.20282-4.3352 1.3409-6.7246 2.5291-2.3895 1.1882-5.698 2.3741-7.3522 2.6353-1.6542 0.26121-5.8949 1.4993-9.4236 2.7514-11.792 4.1842-16.122 5.034-27.003 5.2998-5.5142 0.13468-11.58-1e-3 -13.479-0.30277zm17.529-14.43c-1.6648-1.2592-2.4401-1.2507-1.952 0.0212 0.21161 0.55142 1.0293 0.99302 1.8171 0.98133 1.4032-0.0209 1.406-0.0412 0.13494-1.0026zm-35.13-13.235c0-1.1405-0.69835-1.8427-1.4008-1.4086-0.6743 0.41675-0.016 2.2998 0.80394 2.2998 0.32828 0 0.59688-0.40102 0.59688-0.89117zm48.006-1.5599c-0.32521-1.6768-1.8871-1.9071-1.8871-0.27819 0 0.821 0.43157 1.3925 1.0516 1.3925 0.62243 0 0.9634-0.45476 0.83549-1.1143zm8.6359-0.0307c0.14637-0.44595-0.44295-0.98879-1.3096-1.2063-0.86666-0.21752-1.8655-1.054-2.2197-1.8588-0.96835-2.2003-2.9834-2.3242-2.9834-0.18337 0 1.3035 0.34101 1.72 1.4083 1.72 0.93356 0 1.287 0.31593 1.0486 0.93723-0.19781 0.51547-0.16605 1.1308 0.0706 1.3674 0.6933 0.6933 3.6948 0.10873 3.9852-0.77617zm15.878 0.47665c0.2272-0.36761-0.0558-0.66839-0.62894-0.66839-0.57311 0-1.042 0.30078-1.042 0.66839s0.28303 0.66839 0.62894 0.66839c0.34592 0 0.81483-0.30078 1.042-0.66839zm-28.036-2.0634c0.76914-1.2445-0.75111-2.0472-3.4569-1.8254l-2.5945 0.2127 2.0052 1.1429c2.3572 1.3436 3.4294 1.4681 4.0463 0.46982zm-7.7224-2.6153c-1.3137-0.84899-3.3419-0.84899-3.3419 0 0 0.36761 0.97751 0.66378 2.1722 0.65815 1.6484-8e-3 1.9305-0.16648 1.1697-0.65815zm-65.975-1.3135c3.5845-2.8646 5.8218-4.9231 5.5961-5.1488-0.50622-0.50623-8.4527 4.6046-8.0849 5.1998 0.47917 0.77531 1.4804 0.75479 2.4888-0.051zm77.324-2.3788c-0.46501-0.5603-0.98312-0.88109-1.1514-0.71285-0.46352 0.46352 0.47826 1.7316 1.286 1.7316 0.44321 0 0.3925-0.3835-0.13469-1.0187zm-24.842-2.9498c0.16709-0.50129-0.0836-0.75193-0.58484-0.58484-0.48249 0.16083-1.0088 0.68719-1.1697 1.1697-0.1671 0.50129 0.0835 0.75193 0.58483 0.58484 0.48249-0.16084 1.0088-0.68719 1.1697-1.1697zm-25.273-0.68152c3.6835-0.74365 7.6365-2.2823 8.2209-3.1998 0.81922-1.2862 2.3327-0.99817 2.8198 0.53659 0.52178 1.644 2.8319 1.5399 3.9073-0.17603 0.56196-0.89659 0.37348-1.5024-0.88373-2.8406-1.9448-2.0701-2.6695-2.1104-4.9997-0.27737-1.4919 1.1735-2.0655 1.2906-3.265 0.66654-0.92785-0.48274-3.0294-0.59965-5.7996-0.32263-2.3895 0.23894-6.2701 0.39128-8.6236 0.33854-3.9776-0.0891-6.0809 0.59337-6.0809 1.9733 0 0.31558 1.374 0.38544 3.0532 0.15527 2.9147-0.3995 3.1459-0.30611 5.0946 2.0581 1.4317 1.7369 2.3663 2.3398 3.1293 2.0185 0.59836-0.25193 2.1406-0.67059 3.4273-0.93034zm45.45 0.62542c0-0.91184-3.2139-2.3416-3.845-1.7106-0.57675 0.57674 1.6777 2.3933 2.9702 2.3933 0.48116 0 0.87483-0.30722 0.87483-0.68271zm14.036-1.3224c0-0.36762-0.6193-0.66839-1.3762-0.66839-0.75692 0-1.1903 0.30077-0.96313 0.66839 0.22719 0.36761 0.8465 0.66838 1.3762 0.66838 0.52972 0 0.96313-0.30077 0.96313-0.66838zm-20.386-4.0103c-0.2272-0.36761-0.54573-0.66838-0.70784-0.66838-0.1621 0-0.29474 0.30077-0.29474 0.66838s0.31853 0.66839 0.70783 0.66839c0.38931 0 0.52195-0.30078 0.29475-0.66839zm21.956-2.921 2.5727-0.89571-2.1671-0.43342c-2.1954-0.43908-4.2965 0.52527-3.5999 1.6523 0.44385 0.71817 0.10468 0.75249 3.1943-0.32319zm9.7924-1.0893c0-0.73523-0.30078-1.3368-0.66839-1.3368s-0.66839 0.60155-0.66839 1.3368c0 0.73522 0.30078 1.3368 0.66839 1.3368s0.66839-0.60155 0.66839-1.3368zm-23.394-4.0203c1.4159-1.116 1.5179-1.4182 0.66839-1.9801-1.3626-0.90117-2.6735-0.85247-2.6735 0.0993 0 0.43057-0.49777 1.3329-1.1062 2.0052-1.0349 1.1436-1.0242 1.2214 0.1671 1.2074 0.7003-8e-3 2.0252-0.6075 2.9442-1.3318zm82.546-1.9952c0.66537-0.73522 0.90899-1.3368 0.54137-1.3368-0.36761 0-1.2128 0.60155-1.8782 1.3368-0.66537 0.73523-0.90899 1.3368-0.54137 1.3368 0.36761 0 1.2128-0.60155 1.8782-1.3368zm-134.8-1.7827c-0.32521-1.6768-1.8871-1.9071-1.8871-0.27818 0 0.821 0.43157 1.3925 1.0516 1.3925 0.62243 0 0.9634-0.45475 0.83549-1.1143zm64.856-4.6482c1.1551-0.23103 2.1003-0.71831 2.1003-1.0828 0-0.36454-0.67674-0.48144-1.5039-0.25978-0.82712 0.22167-1.9952 0.40714-2.5956 0.41216-0.65489 5e-3 -1.2314 0.73954-1.4407 1.8345-0.30596 1.6006-0.24496 1.6832 0.49537 0.6707 0.46436-0.63506 1.7894-1.3437 2.9446-1.5747zm-13.02 0.0723c3.11-1.2994 3.101-2.298-0.0188-2.0984-1.8257 0.1168-2.5774 0.52784-2.9862 1.633-0.64601 1.7463-0.21894 1.8125 3.0051 0.46539zm-50.995-0.68789c1.0966-0.56707 1.8138-1.3222 1.5939-1.6781-0.23937-0.38732-0.97866-0.24173-1.8415 0.36265-0.79289 0.55536-1.9762 1.0098-2.6297 1.0098-0.65343 0-1.188 0.30077-1.188 0.66838 0 0.97639 1.7836 0.81727 4.0654-0.36266zm74.964-1.5348c0.58915-0.58915 0.18995-0.77606-1.6575-0.77606-2.3084 0-3.5891 0.70573-2.769 1.5258 0.60178 0.60178 3.5794 0.0974 4.4266-0.74975zm-33.332-2.2799c0.22166-0.82712 0.40713-1.7294 0.41215-2.0052 0.0192-1.0541-1.8267-0.43356-3.2652 1.0977-1.1184 1.1904-1.2762 1.6893-0.6178 1.9524 1.8915 0.75591 3.0845 0.39676 3.4708-1.0449zm6.9937-3.9401c3.5372-1.5145 3.3498-2.8369-0.4418-3.1164-2.1609-0.15926-2.7887 0.0275-2.7887 0.82982 0 0.56944-0.60155 1.411-1.3368 1.8702-0.73523 0.45915-1.3368 1.2339-1.3368 1.7217 0 0.98735 1.1362 0.73616 5.904-1.3053zm-31.962-0.0702c5e-3 -0.45952 0.17942-1.5874 0.38755-2.5064l0.37842-1.671-1.7243 1.8753c-2.071 2.2524-2.1803 3.1376-0.38755 3.1376 0.73523 0 1.3409-0.37597 1.3459-0.83548zm4.6696-8.5219c0-0.36761-0.28302-0.66839-0.62894-0.66839-0.34591 0-0.81483 0.30078-1.042 0.66839-0.2272 0.36761 0.0558 0.66838 0.62894 0.66838 0.57311 0 1.042-0.30077 1.042-0.66838zm109.62-11.402c0-0.38931-0.30077-0.52194-0.66839-0.29475-0.36761 0.2272-0.66838 0.54573-0.66838 0.70784s0.30077 0.29474 0.66838 0.29474c0.36762 0 0.66839-0.31852 0.66839-0.70783z" fill="#f7cf6c"/>
     <path d="m-31.82 618.05c-8.8307-0.40834-9.696-0.57439-15.373-2.9503-3.3085-1.3847-7.5803-3.5547-9.4928-4.8223-1.9126-1.2676-6.0023-3.3616-9.0884-4.6534-4.9344-2.0656-6.5098-3.199-13.065-9.3994-4.0998-3.8778-7.4542-7.469-7.4542-7.9803 0-2.5899 5.7428-8.3142 8.341-8.3142 0.51116 0 1.7063-0.29538 2.6558-0.65641l1.7265-0.65639-1.3488-1.3488c-0.74181-0.74182-1.7072-1.3488-2.1454-1.3488-0.43813 0-2.8217 1.2031-5.2968 2.6735s-4.8236 2.6736-5.2189 2.6736c-1.8584 0 0.17697-6.0077 5.3654-15.837 7.7188-14.623 14.79-22.332 24.996-27.252 6.6854-3.2227 7.5043-3.4658 9.1918-2.7285 0.64415 0.28143 1.9396 0.31882 2.8789 0.0831 1.2812-0.32155 1.6564-0.79593 1.5024-1.8993-0.1746-1.2505 0.39505-1.686 3.805-2.9086 2.2057-0.79087 6.0597-1.643 8.5645-1.8936s5.7759-0.8867 7.2692-1.4136c1.4932-0.52685 3.6547-0.96117 4.8032-0.96515 1.1485-4e-3 3.5921-0.47796 5.4302-1.0533 2.5876-0.80995 6.2838-1.0323 16.375-0.98518 13.196 0.0616 19.621 0.9361 20.791 2.8295 0.41007 0.6635 1.0044 0.68086 2.7328 0.0798 1.2148-0.42246 4.615-1.1184 7.5558-1.5465 2.9409-0.4281 7.3021-1.4093 9.6916-2.1804 2.3895-0.77113 5.9259-1.3862 7.8587-1.3669 2.697 0.0269 3.3564-0.15498 2.8358-0.78235-0.49957-0.60195 0.36149-1.5028 3.2658-3.4167 5.0936-3.3565 8.1014-5.1112 9.7674-5.698 10.478-3.6907 20.248-4.5329 34.422-2.9674 5.3304 0.5887 11.027 1.3817 12.66 1.7623 3.7135 0.86564 12.182 6.0856 14.411 8.8832 0.92235 1.1576 2.085 2.5558 2.5835 3.1072 0.4986 0.55141 1.2896 1.7356 1.7579 2.6314 0.46822 0.89587 1.4376 2.2494 2.1543 3.0077 0.71661 0.75838 2.0696 2.677 3.0067 4.2636 1.6238 2.7494 1.7074 3.3867 1.7815 13.588 0.0722 9.9375-0.0178 10.783-1.259 11.82-0.90175 0.75328-1.3887 2.0756-1.4964 4.0633-0.17843 3.293-0.67706 4.2016-5.4592 9.9479-3.9936 4.7989-16.528 13.472-24.124 16.694-14.525 6.1594-24.291 9.04-38.098 11.238-5.5448 0.88268-9.774 1.0429-20.146 0.76334l-13.128-0.35387-4.0737 1.9403c-2.2405 1.0672-4.8404 1.9403-5.7775 1.9403-0.93709 0-3.9746 1.2031-6.7499 2.6736-2.7754 1.4704-5.9007 2.6735-6.9451 2.6735s-5.0041 1.0816-8.7993 2.4034c-16.373 5.7028-20.419 6.343-35.641 5.6392zm-2.3394-3.3189c0-0.71852-2.6002-1.678-3.125-1.1531-0.1929 0.19291-0.15249 0.67154 0.0898 1.0636 0.5418 0.87664 3.0352 0.95017 3.0352 0.0895zm14.036-3.1009c0-0.53451 1.3406-1.6231 2.9791-2.4192 2.8094-1.3649 3.3709-1.4066 9.8587-0.7312 3.8477 0.40053 7.1498 0.46274 7.4927 0.14116 0.68326-0.6408-0.0689-0.97137-3.6208-1.5914-1.2866-0.22458-3.0638-1.0116-3.9492-1.7489l-1.6099-1.3406 2.031-2.1464c1.117-1.1805 2.3388-2.7491 2.7151-3.4857 0.61272-1.1997 0.46769-1.3391-1.3908-1.3368-1.7724 2e-3 -2.1681-0.31829-2.714-2.1984-0.88724-3.0557 0.0313-3.7213 5.5673-4.0341 4.4819-0.25325 4.6491-0.20659 5.055 1.4107 0.2496 0.99449-9e-3 2.5013-0.63716 3.7166-1.437 2.7788-1.3295 3.5788 0.4469 3.3265 1.237-0.17569 1.5392-0.69543 1.7033-2.9292 0.26873-3.6595 2.5345-4.9955 9.0177-5.3172 5.5528-0.27552 7.4282-0.50655 12.505-1.5405 2.0219-0.41174 4.7627-0.91345 6.0908-1.1149 1.3281-0.20146 2.9823-1.0129 3.6761-1.8033 1.2412-1.414 1.24-1.428-0.0753-0.87562-0.73523 0.30877-2.5399 0.65988-4.0103 0.78023s-3.2583 0.29467-3.973 0.3874c-1.0458 0.13568-1.4179-0.41413-1.906-2.8165-0.42168-2.0755-0.38214-3.0599 0.1298-3.2305 0.40496-0.13498 0.73629-0.55662 0.73629-0.93697 0-0.38036 0.94082-1.7631 2.0907-3.0727 2.0452-2.3294 2.0597-2.3926 0.66839-2.9073-0.78228-0.28939-1.4223-1.1006-1.4223-1.8026 0-0.70206-0.45116-1.6509-1.0026-2.1085-1.499-1.2441-1.241-1.9096 1.3278-3.4252 1.9729-1.164 2.2249-1.572 1.6429-2.6595-0.527-0.98472-0.96867-1.1341-1.8921-0.63984-1.5249 0.81612-8.6147 1.0845-10.603 0.40143-1.1668-0.40087-1.5039-0.26565-1.5039 0.60331 0 0.61599-0.22558 0.97998-0.50128 0.80888-0.27571-0.17111-0.50129-2.5199-0.50129-5.2194v-4.9083l2.4151-0.202c1.8268-0.15279 2.6022-0.61273 3.1833-1.8882 1.0435-2.2902 0.3947-3.0418-2.2047-2.5542-1.9705 0.36966-2.2666 0.20871-3.0367-1.6504-0.46932-1.133-1.1012-2.0601-1.4041-2.0601-0.30296 0-0.9432-0.80491-1.4228-1.7887-0.47958-0.98378-1.2479-1.9112-1.7074-2.0608-1.2684-0.41316-0.99815 1.6817 0.39686 3.0767 0.67778 0.67778 1.4241 2.1912 1.6585 3.3632 0.37548 1.8774 0.20901 2.2186-1.3994 2.868-1.0041 0.40544-2.8038 0.72639-3.9993 0.71322-1.1955-0.0132-2.3412 0.24708-2.5459 0.57833-1.0001 1.6182-9.9905-0.60879-10.6-2.6258-0.55795-1.8451-0.23363-5.4248 0.5502-6.0728 0.40354-0.33363 1.6128-0.70842 2.6873-0.83284 1.0745-0.12444 2.0643-0.56391 2.1996-0.97663 0.46122-1.407-2.6363-1.5087-5.9669-0.19591-2.477 0.97633-4.1413 1.2016-6.5338 0.88417-2.8346-0.37603-3.2604-0.26798-3.6385 0.92334-0.23552 0.74206-2.06 2.473-4.0543 3.8466-3.5237 2.4268-3.674 2.466-5.3225 1.3858-1.2624-0.82718-1.6964-1.6895-1.6964-3.3705 0-1.996 0.42672-2.5422 3.6659-4.6923 3.0323-2.0127 3.8988-2.3087 5.0129-1.7124 1.5216 0.81431 1.7589 0.12458 0.51148-1.4865-0.76015-0.98175-1.126-0.93639-4.0571 0.50308-1.7719 0.87016-4.3285 1.6742-5.6813 1.7868-2.3948 0.19926-2.4546 0.26991-2.2674 2.6809 0.16785 2.1618-0.0614 2.6074-1.8049 3.509-1.0984 0.56801-2.7394 1.0328-3.6466 1.0328-2.8424 0-3.8231 0.64579-3.0824 2.0298 0.50763 0.94852 1.1665 1.1451 2.8966 0.86436 1.6728-0.27146 2.3438-0.0916 2.6516 0.71056 0.45959 1.1977-0.33872 1.3149-4.3917 0.64498-2.225-0.36777-2.5064-0.63196-2.5064-2.353 0-1.1228-0.42996-2.1037-1.0217-2.3307-0.70959-0.27229-0.9648-1.1302-0.83548-2.8086 0.1439-1.8676 0.68284-2.7582 2.3728-3.9211 1.2026-0.82749 2.7065-1.4616 3.3419-1.409 0.63544 0.0525 2.0508 0.0479 3.1453-0.0104l1.99-0.10589-1.8283-1.8283c-1.5762-1.5762-2.0106-1.7145-3.1506-1.0026-0.72724 0.45416-1.9415 0.82575-2.6985 0.82575-1.5815 0-4.9185 3.047-4.348 3.9702 0.20975 0.33937-0.16148 1.0136-0.82496 1.4983-1.9375 1.4153-4.029 5.5579-4.0347 7.9913-3e-3 1.236-0.10818 2.6985-0.23394 3.2499-0.46247 2.0278 1.7967 0.93404 2.416-1.1697 0.35172-1.1947 0.8459-2.1722 1.0982-2.1722 0.66138 0 1.3399 2.0198 0.91141 2.7131-0.19964 0.32302 0.22163 1.7246 0.93614 3.1145l1.2991 2.5272 0.81215-1.7771c0.67347-1.4736 1.3408-1.825 3.9075-2.0577 1.7024-0.15432 3.4802 0.0128 3.9506 0.37149 0.56478 0.43059 1.4413 0.38505 2.5806-0.13406 1.7292-0.7879 1.8707-1.888 0.62194-4.8383-0.8938-2.1117 1.541-2.0172 2.6371 0.10235 0.9298 1.798 0.92116 2.1503-0.0937 3.8202-0.61486 1.0118-2.2013 2.8298-3.5254 4.04l-2.4075 2.2004 2.6736-0.44681c1.7049-0.28493 3.1954-1.0822 4.114-2.2004 0.79228-0.9645 1.6946-1.7636 2.0052-1.7758 0.31055-0.0122 1.9181-0.90839 3.5724-1.9915 4.3193-2.828 12.096-7.0095 13.036-7.0095 0.0965 0 0.34279 0.63982 0.54729 1.4218 0.52404 2.0039-1.3912 4.735-2.9694 4.2341-0.89669-0.2846-2.0782 0.493-4.2625 2.8054-1.6621 1.7595-2.9205 3.508-2.7964 3.8857 0.391 1.1904 2.9962 1.1932 3.2391 3e-3 0.13061-0.63987 1.7526-1.6325 3.8998-2.3866 2.0219-0.71007 3.7764-1.5882 3.8989-1.9513 0.36064-1.0688 2.6054-0.7554 3.0592 0.42703 0.48348 1.2599-0.67925 2.923-2.0436 2.923-0.51549 0-1.2132 0.72565-1.5504 1.6126-0.54561 1.4351-0.91162 1.5725-3.3254 1.2488-2.2112-0.29651-2.7123-0.16225-2.7123 0.72687 0 1.2752-2.0939 1.4478-4.1586 0.34284-1.1682-0.62519-1.5821-0.50263-2.5252 0.74775-0.92846 1.2309-1.3674 1.3674-2.481 0.77142-0.98153-0.52531-1.264-1.1893-1.029-2.4187 0.17816-0.93205 0.0483-1.6946-0.28868-1.6946-1.1055 0-2.2168 1.5748-2.2168 3.1414 0 0.92089-0.402 1.5373-1.0026 1.5373-0.55142 0-1.0026-0.30077-1.0026-0.66839 0-1.345-1.9703-0.61147-4.3267 1.6109-1.3292 1.2536-2.9048 2.4666-3.5013 2.6955-1.4292 0.54844-0.25697 1.7743 2.6371 2.7578 2.8051 0.95322 3.0176 2.0003 0.65402 3.2225-2.8681 1.4832-6.1573 5.5176-6.1573 7.5524 0 1.6543-0.0677 1.69-1.2223 0.64513-1.8674-1.69-2.4053-1.3841-3.9355 2.2379-1.1746 2.7801-1.676 3.3155-2.9733 3.1748-1.2568-0.1363-1.6016 0.18847-1.7719 1.6688-0.17286 1.5022 0.0518 1.8381 1.2296 1.8381 0.79262 0 1.9812-0.66699 2.6413-1.4822 1.0272-1.2685 1.3558-1.3531 2.2794-0.58654 1.4363 1.192 1.3726 1.6174-0.59177 3.952-0.91904 1.0922-1.671 2.2701-1.671 2.6175 0 0.95639 3.3348 2.2754 4.6764 1.8496 0.71922-0.22827 1.338 0.0348 1.5829 0.67302 0.49102 1.2796-1.2604 2.095-2.4245 1.1288-0.63652-0.52826-0.83213 0.0317-0.84934 2.4317-0.0256 3.5699 0.47849 4.1632 2.9419 3.4622 1.3484-0.38368 2.1494-0.14868 3.4301 1.0064 1.8593 1.6768 4.6787 2.7569 4.6787 1.7923 0-0.34281-0.60155-1.388-1.3368-2.3227-0.73522-0.93468-1.3368-2.028-1.3368-2.4295 0-0.40153-0.41433-0.73005-0.92074-0.73005s-1.2546-0.40227-1.6626-0.89392c-0.56675-0.68288-0.3579-1.2546 0.88465-2.422l1.6265-1.528 2.2083 1.2861c1.2298 0.71623 2.303 1.9375 2.4219 2.7562 0.16772 1.1543 0.67008 1.4759 2.3394 1.4972 2.7437 0.0351 6.6898 3.2256 5.7762 4.6702-0.84698 1.3393-0.82547 5.5203 0.0257 4.9942 0.36761-0.22719 0.66838-0.8504 0.66838-1.3849zm4.0103-8.5753c0-1.0576 4.0025-3.8255 4.8101-3.3263 0.28843 0.17825-0.13087 1.2104-0.93177 2.2937-1.5093 2.0414-3.8783 2.6722-3.8783 1.0326zm-4.5163-1.1732c-1.6297-1.6297-0.61711-6.2874 1.9665-9.0457 1.1668-1.2456 1.2651-1.7694 0.65864-3.509-0.39207-1.1247-0.62299-2.0448-0.51316-2.0448 0.10982 0 1.1653 0.33662 2.3455 0.74804 1.448 0.50478 2.0246 1.0639 1.7731 1.7194-0.20501 0.53424-0.0521 1.5703 0.33964 2.3024 0.51156 0.95589 0.49915 1.588-0.0441 2.2425-0.60434 0.72818-0.37847 0.95477 1.1233 1.127 2.8989 0.33236 2.4231 2.1757-0.62673 2.4281-1.3785 0.11409-2.551 0.56525-2.6054 1.0026-0.0544 0.43732-0.12963 1.3967-0.1671 2.1319-0.0806 1.5821-2.9581 2.1898-4.2502 0.89763zm-11.525-9.2152c0-1.7424 2.9101-5.0618 3.9008-4.4494 1.2386 0.76553 0.90449 2.9054-0.68494 4.3861-1.8455 1.7193-3.2159 1.7463-3.2159 0.0633zm39.282-6.1886c-0.90031-0.84428-1.9765-2.3554-2.3916-3.3579-0.67535-1.6312-0.57283-1.9475 0.97479-3.0077 2.6325-1.8035 4.9918-4.3489 5.6714-6.1189 0.57087-1.4868 0.69094-1.52 1.8166-0.50129 0.66291 0.59993 1.7546 1.0908 2.4259 1.0908 1.1699 0 1.1714-0.0544 0.0352-1.3098-1.7907-1.9787-0.89372-4.4254 1.9689-5.3701 3.8607-1.2742 5.1515-0.73621 5.4159 2.2571 0.12609 1.4274-0.0544 3.1252-0.40109 3.773-0.44035 0.8228-0.35215 1.4087 0.2926 1.9438 1.7009 1.4116 1.8596 3.916 0.34423 5.4314-0.80651 0.80651-1.2284 1.8421-0.99664 2.4462 0.65662 1.711-1.5624 3.5278-4.3089 3.5278-2.597 0-4.3571-1.337-4.7768-3.6286-0.39275-2.1446-1.4856-1.5426-2.2692 1.25-0.90701 3.2327-1.688 3.5562-3.8013 1.5743zm-8.8695-2.262-1.8738-2.4567 1.5135-1.1417c0.85244-0.64299 2.2104-1.0084 3.1088-0.8367 1.7923 0.34263 2.1854 1.4859 0.51089 1.4859-0.78729 0-0.89673 0.22893-0.39942 0.83548 0.37676 0.45952 0.78955 1.58 0.91733 2.49 0.36838 2.6236-1.642 2.4233-3.7773-0.37627zm-27.5 0.72694c1.1589-1.1589 2.1812-1.2853 2.7643-0.34185 0.22804 0.36898-0.0199 0.49642-0.56133 0.28863-0.53333-0.20466-1.1682-0.0508-1.4109 0.34185-0.24269 0.39267-0.74575 0.71395-1.1179 0.71395-0.37217 0-0.22552-0.45116 0.3259-1.0026zm23.942-6.7979c0.11861-0.61157 0.59162-1.2371 1.0511-1.3901 1.2289-0.40919 1.02 1.6246-0.21565 2.0987-0.73301 0.28128-0.98588 0.0668-0.83549-0.70858zm8.3924-3.2946c-1.3798-1.3798 2.9998-4.9462 6.0739-4.9462 1.5144 0 0.77176 1.2117-1.1541 1.883-1.0682 0.37237-2.1411 1.3041-2.3844 2.0705-0.42447 1.3374-1.6938 1.8343-2.5354 0.99265zm-27.226-6.59c0-0.18137 0.93688-0.81424 2.082-1.4064 1.457-0.75344 2.2931-0.86548 2.7853-0.37327 0.75026 0.75026 0.37775 0.96014-3.0292 1.7067-1.0109 0.22152-1.8381 0.25436-1.8381 0.073zm12.699-0.60326c0-0.79574 1.3153-1.766 2.394-1.766 0.82634 0 0.094 1.3891-1.0572 2.0052-1.0467 0.56019-1.3368 0.5083-1.3368-0.23917zm14.972-1.2048c-0.50029-0.80949-0.26805-1.0416 1.3337-1.3331 0.69709-0.12685 1.3861 0.10703 1.5312 0.51975 0.33147 0.94297-2.3196 1.6956-2.8649 0.81336zm-34.655-0.50408c-0.2152-0.34821-0.10638-0.80918 0.24183-1.0244 0.3482-0.21521 0.80918-0.10639 1.0244 0.24182 0.2152 0.34821 0.10638 0.80918-0.24183 1.0244-0.34821 0.21521-0.80918 0.10639-1.0244-0.24182zm27.523-1.2268c-0.93318-1.0345-0.94157-1.3242-0.0725-2.5064 0.54043-0.73522 1.3446-1.3773 1.787-1.4268 0.44244-0.0495 1.1601-0.12469 1.5949-0.1671 0.43474-0.0424 0.95923-0.60345 1.1655-1.2468 0.42553-1.327 5.9825-3.8452 7.0413-3.1909 0.8656 0.53498 0.89211 4.3497 0.0396 5.6973-0.42508 0.67194-1.7419 1.0052-3.9928 1.0106-2.7146 7e-3 -3.5595 0.29486-4.4063 1.5039-1.2623 1.8022-1.7771 1.8554-3.1567 0.32615zm-20.54 46.954c0-0.55699-0.59412-1.0026-1.3368-1.0026-0.74265 0-1.3368 0.44559-1.3368 1.0026 0 0.55698 0.59412 1.0026 1.3368 1.0026 0.74265 0 1.3368-0.4456 1.3368-1.0026zm-28.741-2.3394c0-0.36762-0.45116-0.66839-1.0026-0.66839-0.55142 0-1.0026 0.30077-1.0026 0.66839 0 0.36761 0.45116 0.66838 1.0026 0.66838 0.55142 0 1.0026-0.30077 1.0026-0.66838zm-2.6735-2.3394c0-1.0397-0.37876-1.671-1.0026-1.671-1.0025 0-1.3978 2.0555-0.55699 2.8963 0.90874 0.90874 1.5596 0.39738 1.5596-1.2254zm10.026-5.1369c0-0.43582-0.66594-1.5013-1.4799-2.3677-1.2806-1.3631-1.3637-1.7612-0.6173-2.9564 0.71021-1.1372 0.70597-1.3292-0.024-1.0868-0.48762 0.16194-1.1687 1.0926-1.5135 2.0682-0.5165 1.4614-0.34886 2.0697 0.95199 3.4544 1.7096 1.8197 2.6827 2.1419 2.6827 0.88825zm71.384-3.3516c1.4635-1.4635 0.83067-1.9206-1.2031-0.8689-1.1028 0.5703-2.0052 1.1796-2.0052 1.3539 0 0.65412 2.4376 0.28559 3.2082-0.48504zm-5.9892-1.5412c0.12622-0.12623 0.0396-0.82795-0.1926-1.5594-0.40736-1.2835-0.47948-1.2725-2.0662 0.31421-0.90426 0.90425-1.6441 1.8134-1.6441 2.0204 0 0.36652 3.4455-0.31782 3.9029-0.77518zm-21.281-1.667c0-0.36761-0.30077-0.66839-0.66839-0.66839-0.36761 0-0.66838 0.30078-0.66838 0.66839s0.30077 0.66839 0.66838 0.66839c0.36762 0 0.66839-0.30078 0.66839-0.66839zm83.674-1.7934c-0.48249-0.19308-1.059-0.16934-1.2811 0.0527-0.2221 0.2221 0.17267 0.38008 0.87725 0.35105 0.77864-0.0321 0.93701-0.19044 0.40382-0.40381zm-137.53-1.9305c1.3976-1.3976 1.3272-2.7648-0.18405-3.5736-1.512-0.80918-2.7759 0.24121-2.7759 2.3068 0 2.4607 1.2368 2.99 2.96 1.2668zm97.781-8.6764c-0.80497-2.6229-2.8532-4.2116-3.9786-3.0862-0.45928 0.45928-0.13008 1.2272 1.0184 2.3758 1.1683 1.1683 1.5799 2.1452 1.321 3.1352-0.33379 1.2764-0.22149 1.3554 0.99854 0.70246 1.2299-0.6582 1.2973-0.98755 0.64063-3.1273zm-96.836 0.45886c0.94907-3.1677 0.97313-4.0999 0.1058-4.0999-0.36762 0-0.66839 0.35658-0.66839 0.79241 0 0.43582-0.61005 1.4418-1.3557 2.2354-0.81238 0.86474-1.1855 1.8865-0.93106 2.5495 0.7284 1.8982 2.042 1.217 2.8493-1.4775zm6.4202-0.14664c-0.2152-0.34821-0.67617-0.45703-1.0244-0.24182-0.34821 0.2152-0.45703 0.67617-0.24182 1.0244 0.21519 0.34821 0.67617 0.45703 1.0244 0.24182 0.34821-0.2152 0.45702-0.67617 0.24182-1.0244zm-8.9879-5.0867c1.6543-0.19072 3.3716-0.64205 3.8164-1.003 0.48717-0.39535 2.7872-0.4708 5.786-0.1898 4.5834 0.4295 5.0352 0.35833 5.7081-0.89909 1.1445-2.1385 0.88747-3.2336-1.3594-5.7927-2.2262-2.5355-3.6503-2.641-6.1377-0.45461-0.92339 0.81168-2.3915 1.0195-6.2005 0.87761-2.7449-0.10223-6.0206 0.15404-7.2794 0.56947-1.6092 0.53108-2.6756 0.54828-3.5918 0.058-1.7958-0.9611-5.6074 0.44439-7.3971 2.7276l-1.3937 1.7781 3.7022-0.8606c3.6065-0.83836 3.7534-0.8157 5.6826 0.8772 1.0892 0.95579 1.9804 2.157 1.9804 2.6695 0 0.68501 0.48661 0.80689 1.8381 0.46038 1.0109-0.2592 3.1915-0.6273 4.8458-0.81802zm147.04-1.5795c0-0.34592-0.45116-0.62894-1.0026-0.62894-1.0336 0-1.3279 0.78867-0.57516 1.5414 0.53399 0.53399 1.5777-0.0696 1.5777-0.91246zm25.228 0.49228c0.45754-0.29 1.1643-1.1484 1.5706-1.9075 0.80775-1.5093 0.036-1.2914-2.1932 0.61922-1.2457 1.0676-2.5486 0.62035-2.5486-0.87498 0-0.52972-0.54139-0.96313-1.2031-0.96313-0.6617 0-1.5137-0.31063-1.8934-0.69029-0.37967-0.37967-1.1325-0.52062-1.6729-0.31323-1.0492 0.4026-3.4058 3.9681-2.9343 4.4396 0.50386 0.50386 10.019 0.23292 10.875-0.30966zm-13.982-2.0177c0.19581-1.7107 0.0632-1.8524-1.3368-1.4288-2.1669 0.65574-2.8031 1.3874-2.3143 2.6614 0.72125 1.8796 3.3983 0.97578 3.6511-1.2326zm-138.91-1.4823c0-0.52972-0.30077-0.96313-0.66838-0.96313-0.36762 0-0.66839 0.6193-0.66839 1.3762 0 0.75692 0.30077 1.1903 0.66839 0.96313 0.36761-0.2272 0.66838-0.8465 0.66838-1.3762zm82.251-0.4066c3.0146-2.4226 3.1668-2.8981 1.2548-3.9213-1.7112-0.91583-3.3107 0.16872-2.8495 1.9322 0.17141 0.65548-0.16041 1.5836-0.73739 2.0624-1.0251 0.85073-1.4195 2.0437-0.67566 2.0437 0.20536 0 1.5588-0.95265 3.0077-2.117zm51.556 0.42792c0.98996-2.1727-0.15491-3.6872-1.7725-2.3447-1.5561 1.2914-1.2627 4.0338 0.4316 4.0338 0.31422 0 0.91764-0.76009 1.3409-1.6891zm-36.891 0.35232c0-0.36761-0.30077-0.66838-0.66839-0.66838-0.36761 0-0.66838 0.30077-0.66838 0.66838 0 0.36762 0.30077 0.66839 0.66838 0.66839 0.36762 0 0.66839-0.30077 0.66839-0.66839zm-3.0363-0.6222c0.66968-1.0836-0.78554-1.4128-1.6485-0.37302-0.67157 0.8092-0.63063 0.99522 0.21902 0.99522 0.57473 0 1.218-0.27999 1.4295-0.6222zm32.946-5.1149c-0.63693-0.63694-1.9139 0.39475-1.4392 1.1628 0.28214 0.45651 0.65599 0.44498 1.136-0.035 0.39351-0.39352 0.52996-0.901 0.30321-1.1278zm-126.93-2.6492c1.6365-3.5917 0.46421-6.636-2.2791-5.9186-1.0245 0.26791-1.3325 0.96176-1.3969 3.1469-0.1291 4.3812 2.1573 6.1051 3.676 2.7717zm110.53-1.2667c4.7237-1.9737 5.2622-5.1153 0.76048-4.4366-3.6851 0.55551-6.902 3.1304-5.9121 4.7322 0.5803 0.93895 2.4543 0.83143 5.1516-0.29557zm34.304-0.38c0.83487-0.92253 1.4416-1.135 1.9082-0.66838 0.96155 0.96154 5.9852 0.85372 7.0506-0.15131 0.70849-0.66838 0.94688-0.66838 1.192 0 0.16849 0.45952 0.74462 0.83549 1.2803 0.83549 1.0782 0 4.9301-2.6526 4.9301-3.3952 0-0.83903-3.5135-1.3794-4.2407-0.65215-1.1586 1.1586-3.682 0.80049-4.4483-0.63139-0.94176-1.7597-1.8602-1.6971-2.1258 0.1448-0.29314 2.0334-4.0673 3.1619-5.7336 1.7143-0.64013-0.55614-2.0662-1.2254-3.169-1.4872-1.1028-0.26182-2.5753-0.97895-3.2721-1.5936-1.2174-1.0739-1.2485-1.0392-0.79499 0.88756 0.25956 1.1028 0.63783 2.8296 0.84059 3.8371 0.30992 1.5401 0.62297 1.7682 1.9646 1.4314 0.96341-0.2418 1.596-0.10693 1.596 0.34027 0 1.1954 1.6976 0.85179 3.022-0.61172zm-72.868 0.0158c0.2272-0.36762-0.20621-0.66839-0.96313-0.66839s-1.3762 0.30077-1.3762 0.66839c0 0.36761 0.43341 0.66838 0.96313 0.66838s1.149-0.30077 1.3762-0.66838zm-92.878-1.2923c-0.24231-0.39207-0.76042-0.71285-1.1514-0.71285-0.4432 0-0.39249 0.38351 0.1347 1.0187 0.91671 1.1046 1.736 0.85808 1.0166-0.30588zm149.36-0.65818c0-1.7463-0.68426-3.3966-1.4083-3.3966-0.32827 0-0.59687 1.0527-0.59687 2.3394 0 1.6338 0.30236 2.3394 1.0026 2.3394 0.55142 0 1.0026-0.57695 1.0026-1.2821zm-152.04-0.0841c0.23719-0.38377-0.0459-1.4259-0.62893-2.3158-0.58311-0.88993-1.0602-1.7713-1.0602-1.9586 0-0.80092 4.185-2.4147 5.3242-2.0531 0.68592 0.2177 1.4406 0.0828 1.677-0.29975 0.24171-0.39111-0.14122-0.69558-0.87482-0.69558-0.71759 0-1.4778-0.45116-1.6894-1.0026-0.44761-1.1665-2.81-1.3445-3.4789-0.26219-0.28362 0.45892-1.4421 0.58297-3.0472 0.3263-2.9478-0.47138-3.3419 0.39745-1.5916 3.5089 0.5489 0.97575 1.2934 2.6012 1.6544 3.6122 0.66623 1.8655 2.8525 2.5365 3.7154 1.1403zm24.378-4.6888c0-0.34592-0.30078-0.62894-0.66839-0.62894s-0.66838 0.46891-0.66838 1.042c0 0.57311 0.30077 0.85613 0.66838 0.62894 0.36761-0.2272 0.66839-0.69612 0.66839-1.042zm114.29-2.7159c0-0.69022-0.22842-1.2549-0.50761-1.2549-0.83342 0-2.2445 2.6741-1.7949 3.4016 0.60298 0.97563 2.3025-0.60886 2.3025-2.1466zm23.653-1.2716c0.26112-1.6329 0.71297-2.548 1.1307-2.2898 0.3827 0.23651 1.5247 0.0867 2.5377-0.33293 1.2671-0.52484 2.384-0.55684 3.5789-0.10254 1.6909 0.64288 2.5191 3e-3 2.5191-1.9464 0-0.94023-2.8273-1.6218-5.8422-1.4084-2.4943 0.17654-2.9105 6.7e-4 -3.4678-1.4651-0.34832-0.91614-0.95264-1.8631-1.3429-2.1043-0.39028-0.2412-0.70961-1.9247-0.70961-3.741 0-3.3575-0.0128-3.336 4.0939-6.8951 1.7963-1.5568 1.5591-2.2167-0.96704-2.6906-1.2211-0.22909-3.2346-1.1649-4.4744-2.0796-1.2398-0.91466-2.6266-1.663-3.0818-1.663-0.96251 0-1.8617-2.3554-1.2667-3.3182 0.22318-0.3611-0.20857-1.1826-0.95944-1.8255-0.75086-0.64291-1.3698-1.9292-1.3754-2.8584-8e-3 -1.3519-0.14422-1.4892-0.68062-0.68694-0.58198 0.87036-0.76489 0.84189-1.3871-0.21591-0.66778-1.1354-0.79985-1.1432-1.9356-0.11538-0.67041 0.60672-1.7711 1.0452-2.4459 0.97443-3.4825-0.36525-4.0759 1.2927-0.8928 2.4942 2.5291 0.95463 2.8442 3.2336 0.36093 2.6104-1.229-0.30846-1.8257-0.0735-2.3629 0.93012-0.89789 1.6777-1.7992 1.7179-2.3118 0.10294-0.24061-0.7581-1.7163-1.6671-3.7979-2.3394-5.16-1.6665-5.9244-1.5137-5.9244 1.1841 0 1.7111-0.46081 2.6296-1.8381 3.6635-1.44 1.0811-1.6411 1.5096-0.92858 1.979 1.3079 0.86151 3.1849 0.19729 3.8866-1.3753 0.58872-1.3194 0.65995-1.3069 2.7966 0.49095 1.6429 1.3824 1.9713 1.9816 1.3102 2.3903-0.70584 0.4364-0.65113 0.77662 0.27366 1.7016 1.0957 1.096 1.2454 1.0721 2.8756-0.45938 1.2106-1.1373 1.6097-2.0539 1.3481-3.0962-0.20439-0.81436-0.10465-1.6456 0.22164-1.8473 0.53539-0.33088 1.1892 0.92424 2.367 4.5436 0.32173 0.98872 0.82918 1.1668 2.4191 0.84877 1.7965-0.35929 2.1292-0.15666 3.1059 1.8916 0.89116 1.8688 0.93692 2.4831 0.24686 3.3146-0.62924 0.7582-1.1697 0.84796-2.1019 0.34908-0.95434-0.51075-2.0579-0.26462-4.6085 1.0279-3.1009 1.5713-3.6705 1.5925-3.4176 0.12719 0.0519-0.30094-0.73957-0.45133-1.7589-0.33419-1.4409 0.16557-1.899 0.60749-2.0585 1.9857-0.14335 1.2384-0.8074 2.0222-2.2032 2.6003-1.2498 0.51767-1.9192 1.2305-1.7876 1.9034 0.16418 0.83937 0.97879 1.0559 3.707 0.98551l3.4966-0.0903v2.241c0 2.0432 0.13271 2.1919 1.5039 1.6847 0.97533-0.36079 1.7587-1.469 2.2289-3.1533 0.79306-2.8406 2.9845-4.4634 5.4575-4.0415 1.0723 0.18294 1.5039-0.0707 1.5039-0.88391 0-0.62727 0.54483-1.6336 1.2107-2.2362 1.022-0.92488 1.543-0.97028 3.3419-0.29125 1.1722 0.44244 2.1312 1.1529 2.1312 1.5789 0 1.2773-2.0988 5.914-2.9158 6.4416-0.49174 0.31757-0.36682 0.49467 0.35362 0.50129 0.61268 5e-3 1.2323-0.34465 1.3768-0.7784 0.30811-0.92433 2.5221-0.25046 2.5221 0.76766 0 0.37915-0.58379 0.68936-1.2973 0.68936-0.71353 0-1.4922 0.31538-1.7305 0.70084-0.28013 0.45326-0.70728 0.47373-1.2091 0.058-0.96904-0.80283-3.7837 1.3227-3.7837 2.8574 0 1.2467 1.5087 1.3753 3.5181 0.29989 0.78377-0.41945 2.6965-0.84765 4.2504-0.95153 2.8097-0.18783 2.8279-0.17426 3.269 2.4365 0.54213 3.2088 1.3389 2.9024 1.9212-0.73892zm-10.158-18.83c-2.4987-2.4987 0.82894-6.6327 4.1287-5.1292 2.3824 1.0855 2.208 3-0.4192 4.6018-2.5539 1.5571-2.6641 1.5728-3.7095 0.52738zm-2.4938-8.5889c-0.61389-0.99328-0.12566-1.3449 0.94694-0.68202 0.57463 0.35514 0.64299 0.6996 0.19393 0.97714-0.38146 0.23575-0.89485 0.10295-1.1409-0.29512zm30.785 25.601c-0.5664-2.2567-0.8753-2.5968-1.6304-1.7949-0.74155 0.78753 0.29924 3.6316 1.329 3.6316 0.4978 0 0.6024-0.63743 0.3014-1.8367zm-90.163-2.6161c0.56107-2.2355-0.23804-2.7899-1.4753-1.0235-0.73668 1.0518-1.6016 1.415-3.0867 1.2964-1.1348-0.0906-2.1847 0.17654-2.3331 0.59364-0.1783 0.50112 0.87618 0.75835 3.1087 0.75835 3.0208 0 3.4217-0.17203 3.7864-1.625zm5.2367 0.0503c0.62307-0.95093 0.95527-1.9066 0.7382-2.1236-0.4798-0.4798-3.0541 2.1806-3.0541 3.1562 0 1.2501 1.1587 0.73341 2.3159-1.0326zm-87.201-0.841c0-1.002-2.5664-2.9222-3.2998-2.469-0.97184 0.60063-0.89569 2.1792 0.12499 2.5911 1.3701 0.55286 3.1748 0.48343 3.1748-0.12213zm120.31-1.4404c0-0.36761-0.30077-0.66838-0.66838-0.66838-0.36762 0-0.66839 0.30077-0.66839 0.66838s0.30077 0.66839 0.66839 0.66839c0.36761 0 0.66838-0.30078 0.66838-0.66839zm62.008-1.0732c1.2033-0.55514 2.0344-1.2575 1.8469-1.5609-0.18748-0.30334-1.9781-0.75609-3.979-1.0061-2.001-0.25001-3.9968-0.88671-4.4352-1.4149-1.1119-1.3397-1.9701-1.1971-1.9701 0.32749 0 1.2622-3.2114 3.3909-5.1156 3.3909-0.87673 0-1.2107 0.80311-0.59152 1.4223 0.71335 0.71336 12.215-0.22228 14.245-1.1588zm-151.45-1.08c-0.4796-0.47961-0.79092-0.51907-0.79092-0.10026 0 0.37987 0.20052 0.89118 0.44559 1.1362 0.24508 0.24508 0.60099 0.2902 0.79093 0.10026 0.18993-0.18993-0.0106-0.70124-0.4456-1.1362zm48.218-2.6315c-0.17719-3.1698-0.84787-4.1365-2.4446-3.5238-1.38 0.52955-1.4132 1.2097-0.11177 2.2898 0.55142 0.45764 1.0026 1.5472 1.0026 2.4212 0 0.87402 0.38453 1.5891 0.85451 1.5891 0.58151 0 0.80492-0.88695 0.69931-2.7763zm-84.559 0.81291c0.16709-0.50129-0.0836-0.75193-0.58484-0.58484-0.48249 0.16083-1.0088 0.68718-1.1697 1.1697-0.1671 0.50129 0.0835 0.75193 0.58483 0.58484 0.48249-0.16084 1.0088-0.68719 1.1697-1.1697zm103.06-0.71016c0-0.36761-0.30077-0.66838-0.66838-0.66838-0.36762 0-0.66839 0.30077-0.66839 0.66838s0.30077 0.66839 0.66839 0.66839c0.36761 0 0.66838-0.30078 0.66838-0.66839zm-96.214-1.6881c1.0846-0.56085 1.972-1.4709 1.972-2.0223 0-0.88483-0.2216-0.88798-1.8867-0.0269-2.2644 1.171-4.0212 3.069-2.8406 3.069 0.43088 0 1.6708-0.45889 2.7554-1.0197zm52.769-0.31703c0-0.36761-0.46891-0.66838-1.042-0.66838-0.57312 0-0.85614 0.30077-0.62894 0.66838 0.22719 0.36762 0.69611 0.66839 1.042 0.66839 0.34591 0 0.62893-0.30077 0.62893-0.66839zm7.8949-1.162c-0.2571-1.335-1.789-1.7831-3.1347-0.91704-1.3083 0.84201-0.30993 2.079 1.678 2.079 1.2365 0 1.6214-0.30702 1.4568-1.162zm111.08 0.49362c0-0.36761-0.30077-0.66839-0.66838-0.66839s-0.66839 0.30078-0.66839 0.66839 0.30078 0.66838 0.66839 0.66838 0.66838-0.30077 0.66838-0.66838zm-105.55-2.1c0.94859 0.0995 2.1135-0.28754 2.5887-0.8601 0.74359-0.89599 0.62737-1.041-0.83417-1.041-0.93398 0-2.1739-0.18256-2.7554-0.4057-0.69378-0.26623-1.0572-0.0364-1.0572 0.66838 0 0.59076-0.30077 1.0741-0.66839 1.0741-0.36761 0-0.66838 0.31853-0.66838 0.70784 0 0.39588 0.36802 0.48037 0.83508 0.19172 0.4593-0.28386 1.6112-0.4347 2.5598-0.3352zm108.58-1.1824c-0.43182-1.3605-2.3553-1.9865-2.3553-0.7665 0 0.81367 2.0722 2.877 2.4799 2.4693 0.17362-0.17361 0.11754-0.93986-0.1246-1.7028zm-49.472 0.61062c0.55523-0.89838-3.4683-4.8814-4.3689-4.3249-0.74283 0.45909-0.27224 2.7602 0.85181 4.1652 0.80369 1.0046 2.9351 1.1013 3.5171 0.1597zm-90.953-1.0429c1.3058-1.3058 1.3499-2.2916 0.10241-2.2916-1.9483 0-2.9117 0.76599-2.5764 2.0483 0.41007 1.5681 1.083 1.6343 2.474 0.24328zm-23.346-0.95483c0.22719-0.36762-0.0558-0.66839-0.62894-0.66839-0.57312 0-1.042 0.30077-1.042 0.66839 0 0.36761 0.28302 0.66838 0.62894 0.66838s0.81483-0.30077 1.042-0.66838zm10.382-1.3008c0.48383 0.78286 0.96289 0.80595 2.7473 0.13241 1.7934-0.67692 2.3479-0.6469 3.2575 0.17631 0.60294 0.54565 1.5237 0.98762 2.0462 0.98215 1.6781-0.0176-4.3337-4.6176-6.0681-4.6431-1.6363-0.0241-7.5375 1.942-8.391 2.7955-0.23752 0.23752-0.24909 0.72755-0.0257 1.089 0.2533 0.40985 1.43 0.25495 3.127-0.41166 2.3318-0.91593 2.8046-0.93318 3.3069-0.12057zm154.37-2.0017c0-0.78861-1.3036-1.6322-1.7824-1.1534-0.47877 0.47878 0.36483 1.7824 1.1534 1.7824 0.34592 0 0.62894-0.28302 0.62894-0.62893zm-11.192-1.1968c0.64528-0.18548 1.6379 0.0484 2.2058 0.5197 0.8501 0.70553 1.2232 0.66634 2.1113-0.22175 0.88985-0.88986 0.92816-1.2601 0.21881-2.1148-0.47295-0.56988-1.199-1.0349-1.6136-1.0333-1.2911 5e-3 -7.0551 3.1645-6.601 3.6186 0.23678 0.23677 0.89737 0.23663 1.468-3.2e-4 0.57062-0.23695 1.5654-0.58257 2.2107-0.76806zm-4.8494-0.17947c0-0.36762-0.45116-0.66839-1.0026-0.66839-0.55142 0-1.0026 0.30077-1.0026 0.66839 0 0.36761 0.45116 0.66838 1.0026 0.66838 0.55142 0 1.0026-0.30077 1.0026-0.66838zm19.383-3.0077c0-0.55699-0.59412-1.0026-1.3368-1.0026-1.3316 0-1.7386 0.71219-0.89118 1.5596 0.81404 0.81405 2.228 0.46058 2.228-0.55698zm-10.694-1.7745c0-1.023-5.1685-5.912-6.25-5.912-0.46568 0-1.4305 0.4416-2.1441 0.98133-1.2404 0.93817-1.2147 0.98225 0.58458 1.0026 2.5472 0.0287 4.4677 1.1494 4.4677 2.6069 0 0.66102 0.20052 1.4024 0.4456 1.6474 0.74181 0.74182 2.8963 0.4991 2.8963-0.32629zm-10.15-1.0662c-0.14208-0.74923-0.94054-1.2352-2.2213-1.352l-1.9994-0.18232 1.5779 1.352c1.9396 1.6619 2.9364 1.7307 2.6428 0.18233zm-5.53-2.1278c-0.24231-0.39207-0.76042-0.71285-1.1514-0.71285-0.44321 0-0.39249 0.38351 0.13469 1.0187 0.91672 1.1046 1.736 0.85808 1.0167-0.30588zm-39.875-0.65002c0.72189-0.4572 0.60131-0.68743-0.55165-1.0534-1.6572-0.52599-2.3971-0.12291-1.7364 0.94607 0.53041 0.85822 1.063 0.8832 2.288 0.1073zm36.84-0.73122c0-0.36761-0.27618-0.66838-0.61372-0.66838-0.33755 0-1.1647-0.2067-1.8381-0.45934-1.0778-0.40434-1.1145-0.32433-0.30702 0.66839 1.0029 1.233 2.7588 1.5253 2.7588 0.45933zm-28.741-3.0077c0-2.0589-1.9263-2.2678-3.623-0.39292-1.0984 1.2137-1.0952 1.2939 0.0635 1.5934 2.8387 0.73375 3.5595 0.49063 3.5595-1.2005zm6.1408-0.12239c-0.48249-0.19308-1.059-0.16934-1.2811 0.0527-0.2221 0.22211 0.17267 0.38008 0.87726 0.35105 0.77863-0.0321 0.93701-0.19045 0.40381-0.40381zm8.5314-3.6446c1.4284-2.9565 1.2981-3.9486-0.5084-3.8706-1.6201 0.07-5.1405 2.2554-5.1405 3.1911 0 0.61117 3.3953 3.4172 4.1618 3.4395 0.0833 3e-3 0.75253-1.2396 1.4871-2.76zm4.9157 1.0003c0.7117-0.71171-0.18031-1.5451-1.2248-1.1443-0.53753 0.20627-0.81092 0.6443-0.60753 0.97338 0.43325 0.70102 1.2281 0.77516 1.8323 0.17094zm-12.904-1.5777c0-0.36761-0.30078-0.66839-0.66839-0.66839s-0.66838 0.30078-0.66838 0.66839 0.30077 0.66838 0.66838 0.66838 0.66839-0.30077 0.66839-0.66838z" fill="#edb34d"/>
     <path transform="matrix(.61147 0 0 .61147 259.27 493.33)" d="m-461.54 171.96c-7.2254 0-42.148 4.817-46.965 10.838-4.817 6.0212 21.676 20.472 26.493 21.676 4.817 1.2042 28.902 8.4297 45.761 8.4297s44.557-7.2254 44.557-7.2254 19.268-7.2254 26.493-9.6339c7.2254-2.4085 25.289-12.042 25.289-12.042l33.719-10.838s30.106-2.4085 36.127-2.4085c6.0212 0 38.536-13.247 38.536-13.247s12.042-4.817 9.6339-20.472c-2.4085-15.655-19.268-21.676-19.268-21.676s-9.6339 2.4085-25.289 19.268c-15.655 16.859-39.74 13.247-39.74 13.247s-34.923 2.4085-42.148 2.4085c-7.2254 0-33.719 7.2254-39.74 12.042-6.0212 4.817-15.655 9.6339-26.493 10.838-10.838 1.2042-32.514 1.2042-32.514 1.2042z" filter="url(#a)" opacity=".37168" stroke="#000" stroke-width="1px"/>
     <path transform="matrix(.86143 0 0 .86143 352.39 37.366)" d="m-481.07 642.35c-7.2254 0-42.148 4.817-46.965 10.838-4.817 6.0212 21.676 20.472 26.493 21.676 4.817 1.2042 28.902 8.4297 45.761 8.4297s44.557-7.2254 44.557-7.2254 19.268-7.2254 26.493-9.6339c7.2254-2.4085 25.289-12.042 25.289-12.042l33.719-10.838s30.106-2.4085 36.127-2.4085c6.0212 0 38.536-13.247 38.536-13.247s12.042-4.817 9.6339-20.472c-2.4085-15.655-19.268-21.676-19.268-21.676s-9.6339 2.4085-25.289 19.268c-15.655 16.859-39.74 13.247-39.74 13.247s-34.923 2.4085-42.148 2.4085c-7.2254 0-33.719 7.2254-39.74 12.042-6.0212 4.817-15.655 9.6339-26.493 10.838-10.838 1.2042-32.514 1.2042-32.514 1.2042z" filter="url(#a)" opacity=".37168" stroke="#000" stroke-width="1px"/>
    </g>
   </g>
   <path d="m89.878 132.44 37.624-41.584 246.04 246.04-43.564 35.644z" fill="#d40000"/>
  </g>
 </g>
</svg>
